<svg width="142" height="34" viewBox="0 0 142 34" fill="none" xmlns="http://www.w3.org/2000/svg">
<g clip-path="url(#clip0_1019_33137)">
<path d="M36.6119 6.19384H39.9488V6.89855H38.6791V9.57455H37.8814V6.89855H36.6116V6.19384H36.6119Z" fill="black"/>
<path d="M44.7059 8.23641H43.0681V9.57455H42.2657V6.19384H43.0681V7.52245H44.7059V6.19384H45.5036V9.57455H44.7059V8.23641Z" fill="black"/>
<path d="M48.0662 6.19384H50.8697V6.86046H48.8686V7.46994H50.0628V8.15098H48.8686V8.87474H51.0539V9.57482H48.0662V6.19411V6.19384Z" fill="black"/>
<path d="M42.2935 15.9972H38.6122V18.8256H37.3474V12.0642H38.6122V14.8544H42.2935V12.0642H43.5678V18.8256H42.2935V15.9972Z" fill="black"/>
<path d="M47.2019 18.9303C45.9748 18.9303 44.9554 17.9971 44.9554 16.4162C44.9554 14.8354 45.9748 13.9021 47.2113 13.9021C48.2213 13.9021 48.7027 14.5307 48.8065 14.7306V14.0069H50.0148V18.8256H48.816V18.0637C48.7216 18.2637 48.2496 18.9303 47.2019 18.9303ZM47.5228 14.9687C46.711 14.9687 46.1824 15.5972 46.1824 16.4162C46.1824 17.2352 46.711 17.8637 47.5228 17.8637C48.3346 17.8637 48.8254 17.2352 48.8254 16.4162C48.8254 15.5972 48.3063 14.9687 47.5228 14.9687Z" fill="black"/>
<path d="M53.0353 16.8543C51.9875 16.7686 51.2796 16.2924 51.2796 15.3496C51.2796 14.4069 52.1008 13.8736 53.3845 13.8736C55.093 13.8736 55.6122 14.7687 55.7255 15.2354H54.4512C54.3757 15.1306 54.083 14.7973 53.3751 14.7973C52.7993 14.7973 52.4973 14.9973 52.4973 15.283C52.4973 15.5496 52.6955 15.7306 53.1769 15.7877L53.9887 15.8734C55.2818 15.9877 55.8104 16.4924 55.8104 17.4352C55.8104 18.378 55.0553 18.9589 53.6016 18.9589C51.8271 18.9589 51.2513 17.9209 51.1569 17.4733H52.4501C52.4973 17.5876 52.7899 18.0161 53.6016 18.0161C54.2624 18.0161 54.5833 17.7876 54.5833 17.4828C54.5833 17.1781 54.4134 16.9971 53.8754 16.94C53.5356 16.9114 53.3657 16.8924 53.0353 16.8543Z" fill="black"/>
<path d="M58.2266 18.8256H57.0278V11.8166H58.2266V14.8163C58.4059 14.4735 58.944 13.9021 59.8124 13.9021C61.0111 13.9021 61.804 14.7878 61.804 16.0163V18.8256H60.5864V16.2543C60.5864 15.4925 60.1333 14.9878 59.4254 14.9878C58.7174 14.9878 58.2266 15.5115 58.2266 16.2543V18.8256Z" fill="black"/>
<path d="M65.2682 18.9113C64.0222 18.9113 62.9934 17.9685 62.9934 16.4067C62.9934 14.8449 64.0222 13.9021 65.2682 13.9021C66.2971 13.9021 66.8068 14.5497 66.9012 14.7402V14.0069H68.1094V18.7208C68.1094 20.0445 67.2693 20.9683 65.542 20.9683C63.7013 20.9683 63.1066 19.816 63.0311 19.4636H64.4187C64.4848 19.5589 64.7679 19.9588 65.542 19.9588C66.4104 19.9588 66.9106 19.5017 66.9106 18.7018V18.0352C66.8068 18.2447 66.3065 18.9113 65.2682 18.9113ZM65.5797 14.9687C64.7491 14.9687 64.2205 15.5877 64.2205 16.4067C64.2205 17.2257 64.7491 17.8447 65.5797 17.8447C66.4104 17.8447 66.9201 17.2067 66.9201 16.4067C66.9201 15.6068 66.3915 14.9687 65.5797 14.9687Z" fill="black"/>
<path d="M70.8657 18.8256H69.6669V14.0069H70.8657V14.8163C70.9884 14.5402 71.3565 13.9783 72.4137 13.9783H73.5275V15.1878H72.2532C71.2338 15.1878 70.8657 15.5306 70.8657 16.2924V18.8256Z" fill="black"/>
<path d="M76.4914 18.9303C75.2643 18.9303 74.2449 17.9971 74.2449 16.4162C74.2449 14.8354 75.2643 13.9021 76.5009 13.9021C77.5108 13.9021 77.9922 14.5307 78.0961 14.7306V14.0069H79.3043V18.8256H78.1055V18.0637C78.0111 18.2637 77.5392 18.9303 76.4914 18.9303ZM76.8123 14.9687C76.0006 14.9687 75.472 15.5972 75.472 16.4162C75.472 17.2352 76.0006 17.8637 76.8123 17.8637C77.6241 17.8637 78.115 17.2352 78.115 16.4162C78.115 15.5972 77.5958 14.9687 76.8123 14.9687Z" fill="black"/>
<path d="M82.0511 20.8445H80.8618V14.0069H82.0605V14.7687C82.1455 14.5878 82.6646 13.9021 83.7029 13.9021C84.9489 13.9021 85.9684 14.8449 85.9684 16.4162C85.9684 17.9875 84.9489 18.9303 83.7029 18.9303C82.6646 18.9303 82.1455 18.2828 82.0511 18.0923V20.8445ZM83.3915 17.8637C84.2221 17.8637 84.7507 17.2352 84.7507 16.4162C84.7507 15.5972 84.2221 14.9687 83.3915 14.9687C82.5608 14.9687 82.0417 15.5877 82.0417 16.4162C82.0417 17.2447 82.5702 17.8637 83.3915 17.8637Z" fill="black"/>
<path d="M88.4225 18.8256H87.2238V11.8166H88.4225V14.8163C88.6019 14.4735 89.1399 13.9021 90.0083 13.9021C91.2071 13.9021 92 14.7878 92 16.0163V18.8256H90.7823V16.2543C90.7823 15.4925 90.3293 14.9878 89.6213 14.9878C88.9134 14.9878 88.4225 15.5115 88.4225 16.2543V18.8256Z" fill="black"/>
<path d="M39.1198 25.042H37.5246L37.2743 25.6278H36.4674L37.9353 22.2422H38.7565L40.2196 25.6278H39.37L39.1198 25.042ZM38.8317 24.3659L38.322 23.1706L37.8123 24.3659H38.8317Z" fill="black"/>
<path d="M43.0794 23.1518C43.0794 23.3376 43.2398 23.4424 43.5325 23.4756C43.7167 23.4946 43.8534 23.5042 44.0611 23.5232C44.8256 23.5899 45.3308 23.8709 45.3308 24.5993C45.3308 25.2613 44.821 25.6899 43.844 25.6899C42.697 25.6899 42.2722 25.1089 42.1638 24.6279H43.0087C43.0796 24.8088 43.3251 25.0374 43.8442 25.0374C44.2879 25.0374 44.5004 24.885 44.5004 24.6565C44.5004 24.404 44.3116 24.3182 44.0141 24.2851C43.8159 24.2611 43.6743 24.2516 43.4807 24.2325C42.7444 24.1613 42.2582 23.8184 42.2582 23.185C42.2582 22.5516 42.8388 22.1851 43.6646 22.1851C44.7644 22.1851 45.1514 22.7088 45.2504 23.1423H44.4432C44.3677 23.0136 44.1363 22.8326 43.6643 22.8326C43.2914 22.8326 43.0791 22.9518 43.0791 23.1515L43.0794 23.1518Z" fill="black"/>
<path d="M48.3982 23.1518C48.3982 23.3376 48.5587 23.4424 48.8513 23.4756C49.0355 23.4946 49.1722 23.5042 49.3799 23.5232C50.1445 23.5899 50.6496 23.8709 50.6496 24.5993C50.6496 25.2613 50.1399 25.6899 49.1628 25.6899C48.0158 25.6899 47.591 25.1089 47.4826 24.6279H48.3276C48.3985 24.8088 48.6439 25.0374 49.1631 25.0374C49.6067 25.0374 49.8192 24.885 49.8192 24.6565C49.8192 24.404 49.6304 24.3182 49.333 24.2851C49.1348 24.2611 48.9932 24.2516 48.7995 24.2325C48.0633 24.1613 47.577 23.8184 47.577 23.185C47.577 22.5516 48.1577 22.1851 48.9835 22.1851C50.0833 22.1851 50.4703 22.7088 50.5692 23.1423H49.7621C49.6865 23.0136 49.4551 22.8326 48.9832 22.8326C48.6102 22.8326 48.398 22.9518 48.398 23.1515L48.3982 23.1518Z" fill="black"/>
<path d="M52.8818 23.9373C52.8818 22.8993 53.6559 22.1897 54.6613 22.1897C55.6667 22.1897 56.4358 22.8993 56.4358 23.9373C56.4358 24.9753 55.6618 25.685 54.6613 25.685C53.6607 25.685 52.8818 24.9707 52.8818 23.9373ZM55.6192 23.9373C55.6192 23.3706 55.2511 22.9135 54.661 22.9135C54.0709 22.9135 53.6982 23.3659 53.6982 23.9373C53.6982 24.5087 54.0712 24.9612 54.661 24.9612C55.2508 24.9612 55.6192 24.5087 55.6192 23.9373Z" fill="black"/>
<path d="M58.6727 23.9373C58.6727 22.9325 59.3852 22.1897 60.3906 22.1897C61.4809 22.1897 61.8963 22.9469 61.9764 23.3325H61.1597C61.0842 23.1991 60.8528 22.9181 60.3903 22.9181C59.8334 22.9181 59.4936 23.3801 59.4936 23.937C59.4936 24.494 59.8334 24.956 60.3903 24.956C60.886 24.956 61.0937 24.6703 61.1643 24.5419H61.9761C61.91 24.8798 61.5182 25.6847 60.3903 25.6847C59.3849 25.6847 58.6724 24.9419 58.6724 23.937L58.6727 23.9373Z" fill="black"/>
<path d="M64.355 22.2471H65.1574V25.6278H64.355V22.2471Z" fill="black"/>
<path d="M70.0563 25.042H68.4611L68.2108 25.6278H67.4039L68.8718 22.2422H69.693L71.1561 25.6278H70.3066L70.0563 25.042ZM69.7683 24.3659L69.2586 23.1706L68.7488 24.3659H69.7683Z" fill="black"/>
<path d="M72.7465 22.2471H76.0834V22.9518H74.8137V25.6278H74.0159V22.9518H72.7462V22.2471H72.7465Z" fill="black"/>
<path d="M78.41 22.2471H79.2123V25.6278H78.41V22.2471Z" fill="black"/>
<path d="M81.6193 23.9373C81.6193 22.8993 82.3933 22.1897 83.3987 22.1897C84.4041 22.1897 85.1733 22.8993 85.1733 23.9373C85.1733 24.9753 84.3993 25.685 83.3987 25.685C82.3982 25.685 81.6193 24.9707 81.6193 23.9373ZM84.3567 23.9373C84.3567 23.3706 83.9886 22.9135 83.3985 22.9135C82.8084 22.9135 82.4357 23.3659 82.4357 23.9373C82.4357 24.5087 82.8087 24.9612 83.3985 24.9612C83.9883 24.9612 84.3567 24.5087 84.3567 23.9373Z" fill="black"/>
<path d="M90.832 25.6373H90.1807L88.354 23.2993V25.6278H87.5706V22.2471H88.4816L90.0674 24.3185V22.2471H90.832V25.6373Z" fill="black"/>
<mask id="mask0_1019_33137" style="mask-type:luminance" maskUnits="userSpaceOnUse" x="0" y="0" width="31" height="34">
<path d="M29.4756 23.7039L23.3477 23.7139C23.3461 23.7158 23.3445 23.7177 23.3428 23.7197C23.338 23.7254 23.3334 23.7311 23.3286 23.7365L23.3132 23.7338L23.2948 23.7305C23.1201 23.9371 22.9364 24.137 22.7444 24.3305C21.8002 25.2828 20.7004 26.0311 19.4744 26.554C19.199 26.6715 18.9202 26.7763 18.6381 26.8685V24.7038C21.6443 23.4666 23.7628 20.4878 23.7628 17.0102C23.7628 14.2724 22.4496 11.844 20.424 10.3307C20.4224 10.3293 20.4207 10.3282 20.4189 10.3269C19.8582 9.9084 19.2427 9.5604 18.5858 9.29539V5.46246C18.3821 5.40696 18.1772 5.35717 17.9711 5.31309C17.6556 5.24561 17.3371 5.19119 17.0162 5.15038V8.83909C16.534 8.75039 16.0372 8.70413 15.5296 8.70413C14.9746 8.70413 14.4323 8.75964 13.908 8.86548V5.16262C12.8732 5.30356 11.8645 5.58246 10.8944 5.9963C10.1911 6.29615 9.51335 6.66755 8.87958 7.09963C8.25309 7.52653 7.66435 8.01657 7.12955 8.55639C7.07804 8.60836 7.02707 8.66087 6.97664 8.71366L4.25707 8.71801H4.22633C4.65325 8.12731 5.12683 7.56871 5.6387 7.05228C6.26708 6.41831 6.95911 5.8423 7.6951 5.34057C8.44025 4.83285 9.23719 4.39642 10.0641 4.04379C10.2011 3.98556 10.3389 3.92924 10.4778 3.87537V2.2227C10.471 2.22487 10.4637 2.22787 10.457 2.23004V2.20882C10.1191 2.32582 9.7852 2.45452 9.45672 2.59464C8.53707 2.987 7.6506 3.4724 6.82238 4.03699C6.02166 4.5828 5.26761 5.20752 4.58124 5.89481C4.55913 5.91658 4.53728 5.93862 4.51544 5.96066C4.50034 5.9759 4.48577 5.99086 4.47094 6.0061C3.79806 6.69312 3.18559 7.44654 2.65025 8.24621C2.54561 8.40239 2.44367 8.56074 2.34469 8.721C2.03401 9.22355 1.49112 10.2956 1.49112 10.2956L7.60826 10.2855L7.67136 10.2771C7.67298 10.2752 7.68188 10.2689 7.68188 10.2689C7.85664 10.0624 8.0403 9.86242 8.23232 9.66896C9.17651 8.71665 10.2763 7.96841 11.5023 7.44545C11.7777 7.32791 12.0565 7.22315 12.3386 7.13092V9.29566C9.33239 10.5328 7.21397 13.5117 7.21397 16.9893C7.21397 19.7286 8.52817 22.1579 10.5554 23.6707C11.111 24.0853 11.72 24.4309 12.3699 24.6954C12.3767 24.6981 12.3839 24.7008 12.3907 24.7038V28.5367C12.5943 28.5922 12.7993 28.642 13.0053 28.6861C13.3209 28.7536 13.6394 28.808 13.9603 28.8488V25.1598C14.4425 25.2488 14.9393 25.295 15.4468 25.295C15.9946 25.295 16.5299 25.2412 17.0477 25.1381C17.0545 25.1367 17.0617 25.1353 17.0685 25.134V28.8368C17.599 28.7647 18.123 28.6559 18.6381 28.5114C19.1276 28.3743 19.6095 28.2048 20.082 28.0029C20.7854 27.703 21.4631 27.3316 22.0969 26.8996C22.7234 26.4727 23.3121 25.9826 23.8469 25.4428C23.8847 25.4047 23.9224 25.3661 23.9594 25.3274C23.9728 25.3136 23.9863 25.2994 23.9998 25.2855H24.0613L26.714 25.2812H26.7501C26.3232 25.8719 25.8496 26.4305 25.3378 26.9469C24.7094 27.5809 24.0173 28.1569 23.2814 28.6586C22.5362 29.1663 21.7393 29.6028 20.9124 29.9554C20.7754 30.0136 20.6376 30.0699 20.4987 30.1238V31.7765C20.5054 31.7743 20.5127 31.7716 20.5194 31.7691V31.7904C20.8574 31.6734 21.1912 31.5447 21.5197 31.4045C22.4394 31.0122 23.3259 30.5268 24.1541 29.9622C24.9548 29.4164 25.7088 28.7917 26.3952 28.1044C26.4103 28.0894 26.4251 28.0747 26.4402 28.0595C26.4621 28.0374 26.4839 28.0154 26.5055 27.9931C27.1784 27.3061 27.7909 26.5526 28.3262 25.753C28.4308 25.5968 28.5328 25.4384 28.6318 25.2782C28.9424 24.7756 29.2256 24.2543 29.4778 23.7194L29.4853 23.7036H29.4754L29.4756 23.7039ZM20.6236 12.6894C21.5842 13.8559 22.1619 15.3545 22.1619 16.9895C22.1619 18.6245 21.5842 20.1232 20.6236 21.2896V12.6894ZM10.3742 21.3141C9.40116 20.1444 8.81485 18.6359 8.81485 16.9893C8.81485 15.3426 9.40116 13.8341 10.3742 12.6644V21.3138V21.3141ZM11.9336 11.2906C12.963 10.6357 14.1817 10.2564 15.4886 10.2564C16.7956 10.2564 18.0307 10.6406 19.0645 11.3039V16.2029H11.9336V11.2909V11.2906ZM15.4886 23.7221C14.1817 23.7221 12.963 23.3425 11.9336 22.6879V17.7759H19.0645V22.6748C18.0307 23.3382 16.8042 23.7224 15.4886 23.7224V23.7221ZM15.4679 29.9306C14.7286 29.9306 14.0822 30.332 13.7313 30.9306C13.7308 30.9314 13.7305 30.9322 13.73 30.9327C13.7235 30.9322 13.717 30.9314 13.7106 30.9306C13.3608 30.8859 13.0126 30.828 12.6685 30.757C11.7707 30.5717 10.8877 30.2952 10.0438 29.935C9.78925 29.8264 9.53763 29.7097 9.28924 29.5856C8.74581 29.3116 8.21911 29.0017 7.7164 28.6589C6.98042 28.1572 6.28866 27.5811 5.66001 26.9472C5.6565 26.9436 5.65326 26.9404 5.64949 26.9366C5.64598 26.933 5.64275 26.9298 5.63897 26.926C5.01868 26.2977 4.45503 25.6069 3.96311 24.8722C3.45987 24.1204 3.02728 23.3164 2.67776 22.4822C2.32069 21.6308 2.04669 20.74 1.86303 19.8342C1.67532 18.9086 1.58012 17.9584 1.58012 17.0097C1.58012 16.0609 1.67532 15.1108 1.86303 14.1851C1.8784 14.1092 1.89431 14.0335 1.9113 13.9576H4.00222C3.74655 14.9415 3.61764 15.9556 3.61764 16.9884C3.61764 18.6 3.93156 20.1664 4.55104 21.6439C4.83907 22.3315 5.19371 22.9951 5.60499 23.6173C5.61821 23.6372 5.63088 23.6571 5.64437 23.6767C6.06778 24.3087 6.55349 24.9027 7.08856 25.4423L7.10933 25.4632C7.63846 25.9946 8.22019 26.4776 8.83859 26.899C9.26955 27.1926 10.3119 27.7545 10.3119 27.7545V25.9726C9.5557 25.5263 8.85962 24.9838 8.23259 24.3512L8.22207 24.3406L8.21156 24.33C7.26764 23.3774 6.52626 22.2678 6.00764 21.0309C5.47014 19.7485 5.19749 18.3883 5.19749 16.9884C5.19749 15.5885 5.47014 14.2284 6.00764 12.946C6.08855 12.7531 6.17485 12.5632 6.26654 12.3768H0.688252C0.539922 12.8614 0.414785 13.3531 0.31446 13.8488C0.105719 14.8778 0 15.9341 0 16.9884C0 18.0428 0.105719 19.099 0.31446 20.1281C0.518886 21.1356 0.823637 22.1266 1.22062 23.0734C1.34819 23.3779 1.48573 23.6783 1.63271 23.9746C1.63972 23.9888 1.64673 24.0032 1.65402 24.0173C1.94987 24.6091 2.28321 25.1827 2.65052 25.7312C3.20339 26.5567 3.8377 27.3327 4.53647 28.0377C5.23497 28.7427 6.00413 29.3829 6.82265 29.9404C7.65087 30.505 8.53734 30.9904 9.45699 31.3828C10.3958 31.7833 11.378 32.0908 12.3764 32.297C12.747 32.3735 13.121 32.4363 13.497 32.485C13.5005 32.4856 13.504 32.4858 13.5075 32.4864C13.511 32.4869 13.5148 32.4872 13.5183 32.4877C13.5204 32.4953 13.5223 32.5024 13.5242 32.5098C13.7605 33.3688 14.5412 33.9986 15.4673 33.9986C16.3934 33.9986 17.1823 33.3619 17.4142 32.4962C17.4598 32.3267 17.4841 32.1482 17.4841 31.964C17.4841 31.5882 17.3829 31.2361 17.2068 30.9341C16.8565 30.3331 16.2084 29.9295 15.4673 29.9295L15.4679 29.9306ZM30.977 16.9114C30.9719 15.8829 30.8661 14.8531 30.6625 13.8496C30.4581 12.8421 30.1534 11.8511 29.7564 10.9042C29.3675 9.97643 28.8863 9.08207 28.3267 8.24648C27.7739 7.42096 27.1396 6.64496 26.4408 5.93998C25.7423 5.235 24.9731 4.59477 24.1546 4.03726C23.3264 3.47268 22.4399 2.98727 21.5203 2.59492C20.5815 2.1944 19.5993 1.88694 18.6009 1.6807C18.2214 1.60233 17.8382 1.53839 17.4528 1.48887C17.216 0.630159 16.4358 0 15.5091 0C14.5825 0 13.7942 0.636689 13.5622 1.50248C13.5166 1.67199 13.4924 1.85048 13.4924 2.03468C13.4924 2.41044 13.5935 2.76252 13.7696 3.06454C14.1199 3.66559 14.768 4.0691 15.5091 4.0691C16.2502 4.0691 16.8948 3.66776 17.2454 3.06917C17.2459 3.06835 17.2465 3.06781 17.2467 3.06699C17.2532 3.06753 17.2597 3.06835 17.2662 3.06917C17.616 3.11379 17.9641 3.17174 18.3085 3.24276C19.2063 3.42805 20.0893 3.7045 20.9332 4.06474C21.1915 4.17494 21.4472 4.2933 21.6991 4.41955C21.7123 4.42635 21.7258 4.43288 21.739 4.43941C22.2644 4.70714 22.7735 5.00835 23.2606 5.34057C23.9966 5.8423 24.6883 6.41831 25.317 7.05228L25.3378 7.07323C25.958 7.70149 26.5217 8.39232 27.0136 9.12696C27.5169 9.87875 27.9494 10.6828 28.299 11.517C28.656 12.3684 28.93 13.2592 29.1137 14.165C29.3014 15.0906 29.3966 16.0408 29.3966 16.9895C29.3966 17.9383 29.3014 18.8884 29.1137 19.8141C29.0983 19.89 29.0824 19.9656 29.0654 20.0416H26.9745C27.2302 19.0577 27.3591 18.0436 27.3591 17.0107C27.3591 15.3992 27.0452 13.8327 26.4257 12.3553C26.1377 11.6677 25.783 11.0041 25.3717 10.3818C25.3588 10.362 25.3456 10.3421 25.3324 10.3225C24.9089 9.69046 24.4232 9.09649 23.8882 8.55694C23.8847 8.5534 23.8814 8.55013 23.8776 8.54632C23.8741 8.54279 23.8709 8.53952 23.8671 8.53571C23.338 8.00432 22.7563 7.52136 22.1379 7.0999C21.7309 6.82237 21.3053 6.57041 20.8671 6.34621C20.8609 6.34295 20.7765 6.30213 20.6645 6.2488V8.02663C21.4208 8.47286 22.1168 9.01541 22.7439 9.64801L22.7646 9.66896C23.7085 10.6215 24.4502 11.7311 24.9685 12.968C25.506 14.2504 25.7787 15.6106 25.7787 17.0105C25.7787 18.4104 25.506 19.7705 24.9685 21.0529C24.8876 21.2458 24.8013 21.4357 24.7096 21.6221H30.2877C30.436 21.1375 30.5611 20.6459 30.6615 20.1501C30.8651 19.1464 30.9708 18.1168 30.9759 17.0883C30.9759 17.0624 30.9759 17.0366 30.9759 17.0105V16.9871C30.9759 16.9618 30.9759 16.937 30.9759 16.9117L30.977 16.9114Z" fill="white"/>
</mask>
<g mask="url(#mask0_1019_33137)">
<path d="M30.5619 21.6221L30.977 21.2036V21.6221H30.5619Z" fill="#4DB7E7"/>
<path d="M30.1102 21.6221L30.977 20.7479V21.2036L30.5619 21.6221H30.1102Z" fill="#4DB6E7"/>
<path d="M29.6582 21.6221L30.977 20.2919V20.7479L30.1102 21.6221H29.6582Z" fill="#4EB5E6"/>
<path d="M29.2065 21.6221L30.977 19.8361V20.2919L29.6582 21.6221H29.2065Z" fill="#4EB4E5"/>
<path d="M28.7547 21.6221L30.977 19.3801V19.8361L29.2065 21.6221H28.7547Z" fill="#4FB3E5"/>
<path d="M28.3027 21.6221L30.977 18.9244V19.3801L28.7547 21.6221H28.3027Z" fill="#4FB2E4"/>
<path d="M27.851 21.6221L30.977 18.4686V18.9244L28.3027 21.6221H27.851Z" fill="#50B1E3"/>
<path d="M27.399 21.6221L30.977 18.0126V18.4686L27.851 21.6221H27.399Z" fill="#50B0E3"/>
<path d="M26.9473 21.6221L30.977 17.5568V18.0126L27.399 21.6221H26.9473Z" fill="#51AFE2"/>
<path d="M26.4955 21.6221L30.977 17.1008V17.5568L26.9473 21.6221H26.4955Z" fill="#51AEE1"/>
<path d="M26.0435 21.6221L30.977 16.6451V17.1008L26.4955 21.6221H26.0435Z" fill="#52ADE0"/>
<path d="M25.5918 21.6221L30.977 16.1893V16.6451L26.0435 21.6221H25.5918Z" fill="#52ACE0"/>
<path d="M25.1401 21.6221L30.977 15.7333V16.1893L25.5918 21.6221H25.1401Z" fill="#53ABDF"/>
<path d="M24.6881 21.6221L30.977 15.2775V15.7333L25.1401 21.6221H24.6881Z" fill="#53AADE"/>
<path d="M24.6341 21.6221L24.4351 21.4216L30.977 14.8215V15.2775L24.6881 21.6221H24.6341Z" fill="#54A9DE"/>
<path d="M24.4351 21.4216L24.2094 21.1936L30.977 14.3658V14.8215L24.4351 21.4216Z" fill="#54A8DD"/>
<path d="M24.2094 21.1936L23.9834 20.9656L30.977 13.91V14.3658L24.2094 21.1936Z" fill="#55A7DC"/>
<path d="M23.9834 20.9656L23.7574 20.7378L30.977 13.454V13.91L23.9834 20.9656Z" fill="#55A6DC"/>
<path d="M23.7574 20.7378L23.5316 20.5098L30.977 12.9982V13.454L23.7574 20.7378Z" fill="#56A5DB"/>
<path d="M23.5316 20.5098L23.3056 20.2818L30.977 12.5422V12.9982L23.5316 20.5098Z" fill="#56A4DA"/>
<path d="M23.3056 20.2818L23.0796 20.0541L30.977 12.0865V12.5422L23.3056 20.2818Z" fill="#57A3D9"/>
<path d="M23.0796 20.0541L22.8539 19.8261L30.977 11.6307V12.0865L23.0796 20.0541Z" fill="#57A2D9"/>
<path d="M22.8539 19.8261L22.6279 19.598L30.977 11.1747V11.6307L22.8539 19.8261Z" fill="#58A1D8"/>
<path d="M22.6279 19.598L22.4019 19.37L30.977 10.719V11.1747L22.6279 19.598Z" fill="#58A0D7"/>
<path d="M22.4019 19.37L22.1759 19.1423L30.8893 10.3516L30.977 10.4401V10.719L22.4019 19.37Z" fill="#599FD7"/>
<path d="M30.6635 10.1237L21.9502 18.9145L22.1762 19.1425L30.8895 10.3517L30.6635 10.1237Z" fill="#599ED6"/>
<path d="M30.4374 9.89554L21.7241 18.6863L21.9501 18.9143L30.6634 10.1235L30.4374 9.89554Z" fill="#5A9DD5"/>
<path d="M30.2114 9.66753L21.4981 18.4583L21.7241 18.6863L30.4374 9.89552L30.2114 9.66753Z" fill="#5A9CD5"/>
<path d="M29.9854 9.43979L21.2721 18.2306L21.4981 18.4586L30.2114 9.66778L29.9854 9.43979Z" fill="#5B9BD4"/>
<path d="M29.7597 9.21178L21.0464 18.0026L21.2724 18.2305L29.9857 9.43977L29.7597 9.21178Z" fill="#5B9AD3"/>
<path d="M29.5337 8.98377L20.8204 17.7745L21.0464 18.0025L29.7597 9.21176L29.5337 8.98377Z" fill="#5C99D2"/>
<path d="M29.3077 8.75603L20.5944 17.5468L20.8203 17.7748L29.5336 8.98402L29.3077 8.75603Z" fill="#5D98D2"/>
<path d="M29.0818 8.52822L20.3685 17.319L20.5945 17.547L29.3078 8.75621L29.0818 8.52822Z" fill="#5D97D1"/>
<path d="M28.856 8.30001L20.1427 17.0908L20.3687 17.3188L29.082 8.528L28.856 8.30001Z" fill="#5E96D0"/>
<path d="M28.6299 8.07227L19.9167 16.863L20.1426 17.091L28.8559 8.30026L28.6299 8.07227Z" fill="#5E95D0"/>
<path d="M28.4041 7.84445L19.6908 16.6352L19.9168 16.8632L28.6301 8.07244L28.4041 7.84445Z" fill="#5F94CF"/>
<path d="M28.1783 7.61625L19.465 16.407L19.691 16.635L28.4042 7.84424L28.1783 7.61625Z" fill="#5F93CE"/>
<path d="M27.9522 7.38824L19.2389 16.179L19.4649 16.407L28.1782 7.61623L27.9522 7.38824Z" fill="#6092CD"/>
<path d="M27.7262 7.1605L19.0129 15.9513L19.2389 16.1793L27.9522 7.38849L27.7262 7.1605Z" fill="#6091CD"/>
<path d="M27.5006 6.93249L18.7873 15.7233L19.0132 15.9513L27.7265 7.16048L27.5006 6.93249Z" fill="#6190CC"/>
<path d="M27.2745 6.70448L18.5612 15.4953L18.7872 15.7232L27.5005 6.93247L27.2745 6.70448Z" fill="#618FCB"/>
<path d="M27.0485 6.47674L18.3352 15.2675L18.5612 15.4955L27.2745 6.70473L27.0485 6.47674Z" fill="#628ECB"/>
<path d="M26.8228 6.24873L18.1096 15.0395L18.3355 15.2675L27.0488 6.47672L26.8228 6.24873Z" fill="#628DCA"/>
<path d="M26.5968 6.02072L17.8835 14.8115L18.1095 15.0395L26.8228 6.2487L26.5968 6.02072Z" fill="#638CC9"/>
<path d="M26.3708 5.79298L17.6575 14.5838L17.8835 14.8117L26.5968 6.02097L26.3708 5.79298Z" fill="#638BC8"/>
<path d="M26.1449 5.56516L17.4316 14.3559L17.6576 14.5839L26.3709 5.79315L26.1449 5.56516Z" fill="#648AC8"/>
<path d="M25.9191 5.33696L17.2058 14.1277L17.4318 14.3557L26.1451 5.56495L25.9191 5.33696Z" fill="#6489C7"/>
<path d="M25.6931 5.10895L16.9798 13.8997L17.2058 14.1277L25.919 5.33694L25.6931 5.10895Z" fill="#6588C6"/>
<path d="M25.467 4.88121L16.7537 13.672L16.9797 13.9L25.693 5.1092L25.467 4.88121Z" fill="#6587C6"/>
<path d="M25.2414 4.6532L16.5281 13.444L16.7541 13.672L25.4674 4.88119L25.2414 4.6532Z" fill="#6686C5"/>
<path d="M25.0154 4.42519L16.3021 13.216L16.528 13.444L25.2413 4.65318L25.0154 4.42519Z" fill="#6685C4"/>
<path d="M24.7893 4.19745L16.076 12.9882L16.302 13.2162L25.0153 4.42544L24.7893 4.19745Z" fill="#6784C3"/>
<path d="M24.5637 3.96944L15.8504 12.7602L16.0764 12.9882L24.7897 4.19743L24.5637 3.96944Z" fill="#6783C3"/>
<path d="M24.3376 3.74143L15.6244 12.5322L15.8503 12.7602L24.5636 3.96942L24.3376 3.74143Z" fill="#6882C2"/>
<path d="M24.1116 3.51369L15.3983 12.3045L15.6243 12.5325L24.3376 3.74168L24.1116 3.51369Z" fill="#6881C1"/>
<path d="M23.8858 3.28587L15.1725 12.0766L15.3985 12.3046L24.1118 3.51386L23.8858 3.28587Z" fill="#6980C1"/>
<path d="M23.6599 3.05766L14.9466 11.8484L15.1726 12.0764L23.8859 3.28565L23.6599 3.05766Z" fill="#697FC0"/>
<path d="M23.4339 2.82993L14.7206 11.6207L14.9466 11.8487L23.6599 3.05792L23.4339 2.82993Z" fill="#6A7EBF"/>
<path d="M23.2079 2.60192L14.4946 11.3927L14.7206 11.6207L23.4339 2.82991L23.2079 2.60192Z" fill="#6A7DBE"/>
<path d="M22.9822 2.3739L14.2689 11.1647L14.4949 11.3927L23.2082 2.60189L22.9822 2.3739Z" fill="#6B7CBE"/>
<path d="M22.7562 2.1459L14.0429 10.9367L14.2689 11.1647L22.9822 2.37388L22.7562 2.1459Z" fill="#6B7BBD"/>
<path d="M22.5302 1.91816L13.8169 10.7089L14.0428 10.9369L22.7561 2.14615L22.5302 1.91816Z" fill="#6C7ABC"/>
<path d="M22.3045 1.69015L13.5912 10.4809L13.8172 10.7089L22.5305 1.91814L22.3045 1.69015Z" fill="#6C79BC"/>
<path d="M13.5911 10.4809L13.4926 10.3816V10.1244L22.0783 1.46221L22.3043 1.69022L13.5911 10.4809Z" fill="#6D78BB"/>
<path d="M13.4926 9.66842L21.8525 1.23447L22.0783 1.46221L13.4926 10.1244V9.66842Z" fill="#6D77BA"/>
<path d="M13.4926 9.21267L21.6265 1.00646L21.8525 1.23447L13.4926 9.66842V9.21267Z" fill="#6E76B9"/>
<path d="M13.4926 8.75692L21.4005 0.778446L21.6265 1.00646L13.4926 9.21267V8.75692Z" fill="#6F75B9"/>
<path d="M13.4926 8.3009L21.1748 0.550709L21.4005 0.778448L13.4926 8.75692V8.3009Z" fill="#6F74B8"/>
<path d="M13.4926 7.84515L20.9488 0.322697L21.1748 0.550707L13.4926 8.3009V7.84515Z" fill="#7073B7"/>
<path d="M13.4926 7.38913L20.7228 0.0946884L20.9488 0.322699L13.4926 7.84515V7.38913Z" fill="#7072B7"/>
<path d="M13.4926 6.93338L20.3649 0H20.6289L20.7228 0.0946871L13.4926 7.38913V6.93338Z" fill="#7171B6"/>
<path d="M13.4926 6.47763L19.9132 0H20.3649L13.4926 6.93338V6.47763Z" fill="#7170B5"/>
<path d="M13.4926 6.02161L19.4612 0H19.9132L13.4926 6.47763V6.02161Z" fill="#726FB4"/>
<path d="M13.4926 5.56586L19.0094 0H19.4612L13.4926 6.02161V5.56586Z" fill="#726EB4"/>
<path d="M13.4926 5.11011L18.5574 0H19.0094L13.4926 5.56586V5.11011Z" fill="#736DB3"/>
<path d="M13.4926 4.65409L18.1057 0H18.5574L13.4926 5.11011V4.65409Z" fill="#736BB2"/>
<path d="M13.4926 4.19834L17.654 0H18.1057L13.4926 4.65409V4.19834Z" fill="#746AB2"/>
<path d="M13.4926 3.74232L17.202 0H17.654L13.4926 4.19834V3.74232Z" fill="#7469B1"/>
<path d="M13.4926 3.28657L16.7502 0H17.202L13.4926 3.74232V3.28657Z" fill="#7568B0"/>
<path d="M13.4926 2.83082L16.2982 0H16.7502L13.4926 3.28657V2.83082Z" fill="#7567AF"/>
<path d="M13.4926 2.37479L15.8465 0H16.2982L13.4926 2.83082V2.37479Z" fill="#7666AF"/>
<path d="M13.4926 1.91905L15.3948 0H15.8465L13.4926 2.37479V1.91905Z" fill="#7665AE"/>
<path d="M13.4926 1.46302L14.9428 0H15.3948L13.4926 1.91905V1.46302Z" fill="#7764AD"/>
<path d="M13.4926 1.00727L14.491 0H14.9428L13.4926 1.46302V1.00727Z" fill="#7763AC"/>
<path d="M13.4926 0.551525L14.0393 0H14.491L13.4926 1.00727V0.551525Z" fill="#7862AC"/>
<path d="M13.4926 0.0955033L13.5873 0H14.0393L13.4926 0.551525V0.0955033Z" fill="#7861AB"/>
<path d="M13.5873 0L13.4926 0.0955033V0H13.5873Z" fill="#7960AA"/>
<path d="M17.3897 34L17.4843 33.9045V34H17.3897Z" fill="#4EB5E6"/>
<path d="M16.9377 34L17.4843 33.4487V33.9045L17.3897 34H16.9377Z" fill="#4EB4E5"/>
<path d="M16.4859 34L17.4843 32.9927V33.4487L16.9377 34H16.4859Z" fill="#4FB3E5"/>
<path d="M16.0339 34L17.4843 32.537V32.9927L16.4859 34H16.0339Z" fill="#4FB2E4"/>
<path d="M15.5822 34L17.4843 32.0812V32.537L16.0339 34H15.5822Z" fill="#50B1E3"/>
<path d="M15.1305 34L17.4843 31.6252V32.0812L15.5822 34H15.1305Z" fill="#50B0E3"/>
<path d="M14.6785 34L17.4843 31.1695V31.6252L15.1305 34H14.6785Z" fill="#51AFE2"/>
<path d="M14.2267 34L17.4843 30.7134V31.1695L14.6785 34H14.2267Z" fill="#51AEE1"/>
<path d="M13.775 34L17.4843 30.2577V30.7134L14.2267 34H13.775Z" fill="#52ADE0"/>
<path d="M13.323 34L17.4843 29.8019V30.2577L13.775 34H13.323Z" fill="#52ACE0"/>
<path d="M12.8713 34L17.4843 29.3459V29.8019L13.323 34H12.8713Z" fill="#53ABDF"/>
<path d="M12.4193 34L17.4843 28.8902V29.3459L12.8713 34H12.4193Z" fill="#53AADE"/>
<path d="M11.9675 34L17.4843 28.4341V28.8902L12.4193 34H11.9675Z" fill="#54A9DE"/>
<path d="M11.5158 34L17.4843 27.9784V28.4341L11.9675 34H11.5158Z" fill="#54A8DD"/>
<path d="M11.0638 34L17.4843 27.5226V27.9784L11.5158 34H11.0638Z" fill="#55A7DC"/>
<path d="M10.6121 34L17.4843 27.0666V27.5226L11.0638 34H10.6121Z" fill="#55A6DC"/>
<path d="M10.3688 34L10.2644 33.895L17.4843 26.6109V27.0666L10.6121 34H10.3688Z" fill="#56A5DB"/>
<path d="M10.2644 33.895L10.0384 33.667L17.4843 26.1549V26.6109L10.2644 33.895Z" fill="#56A4DA"/>
<path d="M10.0384 33.667L9.81271 33.439L17.4843 25.6991V26.1549L10.0384 33.667Z" fill="#57A3D9"/>
<path d="M9.81271 33.439L9.58671 33.2109L17.4843 25.2434V25.6991L9.81271 33.439Z" fill="#57A2D9"/>
<path d="M9.58671 33.2109L9.36071 32.9832L17.4843 24.7873V25.2434L9.58671 33.2109Z" fill="#58A1D8"/>
<path d="M9.36071 32.9832L9.13498 32.7552L17.4843 24.3316V24.7873L9.36071 32.9832Z" fill="#58A0D7"/>
<path d="M9.13497 32.7552L8.90897 32.5272L17.4843 23.8756V24.3316L9.13497 32.7552Z" fill="#599FD7"/>
<path d="M8.90898 32.5272L8.68298 32.2994L17.3859 23.5191L17.4843 23.6184V23.8756L8.90898 32.5272Z" fill="#599ED6"/>
<path d="M17.1601 23.2914L8.45725 32.0716L8.68323 32.2996L17.386 23.5194L17.1601 23.2914Z" fill="#5A9DD5"/>
<path d="M16.934 23.0634L8.23122 31.8436L8.4572 32.0716L17.16 23.2914L16.934 23.0634Z" fill="#5A9CD5"/>
<path d="M16.7082 22.8352L8.00538 31.6154L8.23136 31.8434L16.9342 23.0632L16.7082 22.8352Z" fill="#5B9BD4"/>
<path d="M16.4823 22.6074L7.77954 31.3876L8.00552 31.6156L16.7083 22.8354L16.4823 22.6074Z" fill="#5B9AD3"/>
<path d="M16.2563 22.3797L7.5535 31.1599L7.77948 31.3879L16.4823 22.6077L16.2563 22.3797Z" fill="#5C99D2"/>
<path d="M16.0305 22.1515L7.32767 30.9317L7.55365 31.1597L16.2565 22.3795L16.0305 22.1515Z" fill="#5D98D2"/>
<path d="M15.8044 21.9235L7.10164 30.7036L7.32762 30.9316L16.0304 22.1514L15.8044 21.9235Z" fill="#5D97D1"/>
<path d="M15.5786 21.6959L6.87579 30.4761L7.10177 30.7041L15.8046 21.9239L15.5786 21.6959Z" fill="#5E96D0"/>
<path d="M15.3528 21.4677L6.64996 30.2479L6.87594 30.4759L15.5787 21.6957L15.3528 21.4677Z" fill="#5E95D0"/>
<path d="M15.1267 21.2397L6.42392 30.0199L6.6499 30.2479L15.3527 21.4677L15.1267 21.2397Z" fill="#5F94CF"/>
<path d="M14.9009 21.0122L6.19808 29.7923L6.42406 30.0203L15.1269 21.2401L14.9009 21.0122Z" fill="#5F93CE"/>
<path d="M14.6749 20.7841L5.97205 29.5643L6.19803 29.7923L14.9008 21.0121L14.6749 20.7841Z" fill="#6092CD"/>
<path d="M14.4487 20.5559L5.74594 29.3361L5.97192 29.5641L14.6747 20.7839L14.4487 20.5559Z" fill="#6091CD"/>
<path d="M14.2229 20.3281L5.5201 29.1083L5.74608 29.3363L14.4489 20.5561L14.2229 20.3281Z" fill="#6190CC"/>
<path d="M13.9969 20.1004L5.29407 28.8806L5.52005 29.1086L14.2229 20.3284L13.9969 20.1004Z" fill="#618FCB"/>
<path d="M13.771 19.8722L5.06823 28.6524L5.29421 28.8804L13.997 20.1002L13.771 19.8722Z" fill="#628ECB"/>
<path d="M13.545 19.6442L4.8422 28.4244L5.06818 28.6523L13.771 19.8722L13.545 19.6442Z" fill="#628DCA"/>
<path d="M13.3192 19.4166L4.61636 28.1968L4.84234 28.4248L13.5451 19.6446L13.3192 19.4166Z" fill="#638CC9"/>
<path d="M13.0933 19.1884L4.39052 27.9686L4.6165 28.1966L13.3193 19.4164L13.0933 19.1884Z" fill="#638BC8"/>
<path d="M12.8673 18.9604L4.16449 27.7406L4.39047 27.9686L13.0933 19.1884L12.8673 18.9604Z" fill="#648AC8"/>
<path d="M12.6414 18.7329L3.93864 27.5131L4.16462 27.741L12.8674 18.9608L12.6414 18.7329Z" fill="#6489C7"/>
<path d="M12.4154 18.5049L3.71262 27.285L3.9386 27.513L12.6414 18.7328L12.4154 18.5049Z" fill="#6588C6"/>
<path d="M12.1896 18.2766L3.48678 27.0568L3.71276 27.2848L12.4156 18.5046L12.1896 18.2766Z" fill="#6587C6"/>
<path d="M11.9637 18.0488L3.26093 26.829L3.48691 27.057L12.1897 18.2768L11.9637 18.0488Z" fill="#6686C5"/>
<path d="M11.7377 17.8211L3.0349 26.6013L3.26088 26.8293L11.9637 18.0491L11.7377 17.8211Z" fill="#6685C4"/>
<path d="M11.5119 17.5929L2.80907 26.3731L3.03505 26.6011L11.7379 17.8209L11.5119 17.5929Z" fill="#6784C3"/>
<path d="M11.286 17.3651L2.58322 26.1453L2.8092 26.3732L11.512 17.5931L11.286 17.3651Z" fill="#6783C3"/>
<path d="M11.06 17.1373L2.35719 25.9175L2.58317 26.1455L11.286 17.3653L11.06 17.1373Z" fill="#6882C2"/>
<path d="M10.8342 16.9091L2.13136 25.6893L2.35733 25.9173L11.0601 17.1371L10.8342 16.9091Z" fill="#6881C1"/>
<path d="M10.6081 16.6811L1.90532 25.4613L2.1313 25.6893L10.8341 16.9091L10.6081 16.6811Z" fill="#6980C1"/>
<path d="M10.3823 16.4536L1.67948 25.2338L1.90546 25.4617L10.6083 16.6816L10.3823 16.4536Z" fill="#697FC0"/>
<path d="M10.1563 16.2256L1.45345 25.0057L1.67943 25.2337L10.3822 16.4535L10.1563 16.2256Z" fill="#6A7EBF"/>
<path d="M9.93041 15.9974L1.22761 24.7775L1.45359 25.0055L10.1564 16.2253L9.93041 15.9974Z" fill="#6A7DBE"/>
<path d="M9.70457 15.7695L1.00177 24.5497L1.22775 24.7777L9.93055 15.9975L9.70457 15.7695Z" fill="#6B7CBE"/>
<path d="M9.47854 15.5418L0.775734 24.322L1.00171 24.55L9.70452 15.7698L9.47854 15.5418Z" fill="#6B7BBD"/>
<path d="M9.2527 15.3136L0.549896 24.0938L0.775877 24.3218L9.47868 15.5416L9.2527 15.3136Z" fill="#6C7ABC"/>
<path d="M9.02686 15.0858L0.324059 23.866L0.550038 24.094L9.25284 15.3138L9.02686 15.0858Z" fill="#6C79BC"/>
<path d="M8.80083 14.858L0.0980225 23.6382L0.324003 23.8662L9.02681 15.086L8.80083 14.858Z" fill="#6D78BB"/>
<path d="M0.0981676 23.638L0 23.539V23.281L8.5751 14.63L8.80083 14.8577L0.0981676 23.638Z" fill="#6D77BA"/>
<path d="M0 22.8253L8.3491 14.402L8.5751 14.63L0 23.281V22.8253Z" fill="#6E76B9"/>
<path d="M0 22.3695L8.1231 14.1739L8.3491 14.402L0 22.8253V22.3695Z" fill="#6F75B9"/>
<path d="M0 21.9135L7.89736 13.9462L8.1231 14.1739L0 22.3695V21.9135Z" fill="#6F74B8"/>
<path d="M0 21.4578L7.67136 13.7182L7.89736 13.9462L0 21.9135V21.4578Z" fill="#7073B7"/>
<path d="M0 21.0018L7.44536 13.4902L7.67136 13.7182L0 21.4578V21.0018Z" fill="#7072B7"/>
<path d="M0 20.546L7.21936 13.2624L7.44536 13.4902L0 21.0018V20.546Z" fill="#7171B6"/>
<path d="M0 20.0903L6.99363 13.0344L7.21936 13.2624L0 20.546V20.0903Z" fill="#7170B5"/>
<path d="M0 19.6342L6.76763 12.8064L6.99363 13.0344L0 20.0903V19.6342Z" fill="#726FB4"/>
<path d="M0 19.1785L6.54163 12.5787L6.76763 12.8064L0 19.6342V19.1785Z" fill="#726EB4"/>
<path d="M0 18.7225L6.28893 12.3779H6.34286L6.54163 12.5787L0 19.1785V18.7225Z" fill="#736DB3"/>
<path d="M0 18.2667L5.83692 12.3779H6.28893L0 18.7225V18.2667Z" fill="#736BB2"/>
<path d="M0 17.811L5.38519 12.3779H5.83692L0 18.2667V17.811Z" fill="#746AB2"/>
<path d="M0 17.3549L4.93319 12.3779H5.38519L0 17.811V17.3549Z" fill="#7469B1"/>
<path d="M0 16.8992L4.48146 12.3779H4.93319L0 17.3549V16.8992Z" fill="#7568B0"/>
<path d="M0 16.4432L4.02972 12.3779H4.48146L0 16.8992V16.4432Z" fill="#7567AF"/>
<path d="M0 15.9874L3.57772 12.3779H4.02972L0 16.4432V15.9874Z" fill="#7666AF"/>
<path d="M0 15.5317L3.12599 12.3779H3.57772L0 15.9874V15.5317Z" fill="#7665AE"/>
<path d="M0 15.0756L2.67426 12.3779H3.12599L0 15.5317V15.0756Z" fill="#7764AD"/>
<path d="M0 14.6199L2.22225 12.3779H2.67426L0 15.0756V14.6199Z" fill="#7763AC"/>
<path d="M0 14.1641L1.77052 12.3779H2.22225L0 14.6199V14.1641Z" fill="#7862AC"/>
<path d="M0 13.7081L1.31852 12.3779H1.77052L0 14.1641V13.7081Z" fill="#7861AB"/>
<path d="M0 13.2524L0.866787 12.3779H1.31852L0 13.7081V13.2524Z" fill="#7960AA"/>
<path d="M0 12.7964L0.415055 12.3779H0.866787L0 13.2524V12.7964Z" fill="#795FAA"/>
<path d="M0.415055 12.3779L0 12.7964V12.3779H0.415055Z" fill="#7A5EA9"/>
<path d="M18.9916 23.7224L19.0642 23.6492V23.7224H18.9916Z" fill="#57A2D9"/>
<path d="M18.5399 23.7224L19.0642 23.1934V23.6492L18.9916 23.7224H18.5399Z" fill="#58A1D8"/>
<path d="M18.0879 23.7224L19.0642 22.7374V23.1934L18.5399 23.7224H18.0879Z" fill="#58A0D7"/>
<path d="M17.6362 23.7224L19.0642 22.2817V22.7374L18.0879 23.7224H17.6362Z" fill="#599FD7"/>
<path d="M17.1844 23.7224L19.0642 21.8256V22.2817L17.6362 23.7224H17.1844Z" fill="#599ED6"/>
<path d="M16.7324 23.7224L19.0642 21.3699V21.8256L17.1844 23.7224H16.7324Z" fill="#5A9DD5"/>
<path d="M16.2807 23.7224L19.0642 20.9141V21.3699L16.7324 23.7224H16.2807Z" fill="#5A9CD5"/>
<path d="M15.8287 23.7224L19.0642 20.4581V20.9141L16.2807 23.7224H15.8287Z" fill="#5B9BD4"/>
<path d="M15.377 23.7224L19.0642 20.0024V20.4581L15.8287 23.7224H15.377Z" fill="#5B9AD3"/>
<path d="M14.9252 23.7224L19.0642 19.5463V20.0024L15.377 23.7224H14.9252Z" fill="#5C99D2"/>
<path d="M14.4732 23.7224L19.0642 19.0906V19.5463L14.9252 23.7224H14.4732Z" fill="#5D98D2"/>
<path d="M14.0215 23.7224L19.0642 18.6348V19.0906L14.4732 23.7224H14.0215Z" fill="#5D97D1"/>
<path d="M13.5695 23.7224L19.0642 18.1788V18.6348L14.0215 23.7224H13.5695Z" fill="#5E96D0"/>
<path d="M13.1178 23.7224L19.0116 17.7761H19.0642V18.1788L13.5695 23.7224H13.1178Z" fill="#5E95D0"/>
<path d="M12.8823 23.7224L12.7742 23.6133L18.5599 17.7761H19.0116L13.1178 23.7224H12.8823Z" fill="#5F94CF"/>
<path d="M12.7742 23.6133L12.5482 23.3855L18.1081 17.7761H18.5599L12.7742 23.6133Z" fill="#5F93CE"/>
<path d="M12.5482 23.3855L12.3222 23.1575L17.6561 17.7761H18.1081L12.5482 23.3855Z" fill="#6092CD"/>
<path d="M12.3222 23.1575L12.0965 22.9295L17.2044 17.7761H17.6561L12.3222 23.1575Z" fill="#6091CD"/>
<path d="M12.0965 22.9295L11.9333 22.7652V22.6381L16.7524 17.7761H17.2044L12.0965 22.9295Z" fill="#6190CC"/>
<path d="M11.9333 22.1823L16.3007 17.7761H16.7524L11.9333 22.6381V22.1823Z" fill="#618FCB"/>
<path d="M11.9333 21.7263L15.8489 17.7761H16.3007L11.9333 22.1823V21.7263Z" fill="#628ECB"/>
<path d="M11.9333 21.2706L15.3969 17.7761H15.8489L11.9333 21.7263V21.2706Z" fill="#628DCA"/>
<path d="M11.9333 20.8146L14.9452 17.7761H15.3969L11.9333 21.2706V20.8146Z" fill="#638CC9"/>
<path d="M11.9333 20.3588L14.4932 17.7761H14.9452L11.9333 20.8146V20.3588Z" fill="#638BC8"/>
<path d="M11.9333 19.9031L14.0415 17.7761H14.4932L11.9333 20.3588V19.9031Z" fill="#648AC8"/>
<path d="M11.9333 19.447L13.5897 17.7761H14.0415L11.9333 19.9031V19.447Z" fill="#6489C7"/>
<path d="M11.9333 18.9913L13.1377 17.7761H13.5897L11.9333 19.447V18.9913Z" fill="#6588C6"/>
<path d="M11.9333 18.5353L12.686 17.7761H13.1377L11.9333 18.9913V18.5353Z" fill="#6587C6"/>
<path d="M11.9333 18.0795L12.234 17.7761H12.686L11.9333 18.5353V18.0795Z" fill="#6686C5"/>
<path d="M12.234 17.7761L11.9333 18.0795V17.7761H12.234Z" fill="#6685C4"/>
<path d="M18.7635 16.2029L19.0642 15.8995V16.2029H18.7635Z" fill="#6091CD"/>
<path d="M18.3118 16.2029L19.0642 15.4438V15.8995L18.7635 16.2029H18.3118Z" fill="#6190CC"/>
<path d="M17.86 16.2029L19.0642 14.9878V15.4438L18.3118 16.2029H17.86Z" fill="#618FCB"/>
<path d="M17.408 16.2029L19.0642 14.532V14.9878L17.86 16.2029H17.408Z" fill="#628ECB"/>
<path d="M16.9563 16.2029L19.0642 14.0763V14.532L17.408 16.2029H16.9563Z" fill="#628DCA"/>
<path d="M16.5043 16.2029L19.0642 13.6202V14.0763L16.9563 16.2029H16.5043Z" fill="#638CC9"/>
<path d="M16.0526 16.2029L19.0642 13.1645V13.6202L16.5043 16.2029H16.0526Z" fill="#638BC8"/>
<path d="M15.6008 16.2029L19.0642 12.7085V13.1645L16.0526 16.2029H15.6008Z" fill="#648AC8"/>
<path d="M15.1488 16.2029L19.0642 12.2527V12.7085L15.6008 16.2029H15.1488Z" fill="#6489C7"/>
<path d="M14.6971 16.2029L19.0642 11.797V12.2527L15.1488 16.2029H14.6971Z" fill="#6588C6"/>
<path d="M14.2451 16.2029L19.0642 11.341V11.797L14.6971 16.2029H14.2451Z" fill="#6587C6"/>
<path d="M13.7934 16.2029L18.8948 11.0561L19.0642 11.2272V11.341L14.2451 16.2029H13.7934Z" fill="#6686C5"/>
<path d="M13.3416 16.2029L18.6688 10.8283L18.8948 11.0561L13.7934 16.2029H13.3416Z" fill="#6685C4"/>
<path d="M12.8896 16.2029L18.4431 10.6003L18.6688 10.8283L13.3416 16.2029H12.8896Z" fill="#6784C3"/>
<path d="M12.4379 16.2029L18.2171 10.3723L18.4431 10.6003L12.8896 16.2029H12.4379Z" fill="#6783C3"/>
<path d="M11.9859 16.2029L17.88 10.2567H18.1025L18.2171 10.3723L12.4379 16.2029H11.9859Z" fill="#6882C2"/>
<path d="M11.9333 15.8002L17.428 10.2567H17.88L11.9859 16.2029H11.9333V15.8002Z" fill="#6881C1"/>
<path d="M11.9333 15.3445L16.9762 10.2567H17.428L11.9333 15.8002V15.3445Z" fill="#6980C1"/>
<path d="M11.9333 14.8885L16.5245 10.2567H16.9762L11.9333 15.3445V14.8885Z" fill="#697FC0"/>
<path d="M11.9333 14.4327L16.0725 10.2567H16.5245L11.9333 14.8885V14.4327Z" fill="#6A7EBF"/>
<path d="M11.9333 13.9767L15.6208 10.2567H16.0725L11.9333 14.4327V13.9767Z" fill="#6A7DBE"/>
<path d="M11.9333 13.5209L15.1688 10.2567H15.6208L11.9333 13.9767V13.5209Z" fill="#6B7CBE"/>
<path d="M11.9333 13.0652L14.717 10.2567H15.1688L11.9333 13.5209V13.0652Z" fill="#6B7BBD"/>
<path d="M11.9333 12.6092L14.2653 10.2567H14.717L11.9333 13.0652V12.6092Z" fill="#6C7ABC"/>
<path d="M11.9333 12.1534L13.8133 10.2567H14.2653L11.9333 12.6092V12.1534Z" fill="#6C79BC"/>
<path d="M11.9333 11.6974L13.3616 10.2567H13.8133L11.9333 12.1534V11.6974Z" fill="#6D78BB"/>
<path d="M11.9333 11.2416L12.9098 10.2567H13.3616L11.9333 11.6974V11.2416Z" fill="#6D77BA"/>
<path d="M11.9333 10.7859L12.4578 10.2567H12.9098L11.9333 11.2416V10.7859Z" fill="#6E76B9"/>
<path d="M11.9333 10.3299L12.0061 10.2567H12.4578L11.9333 10.7859V10.3299Z" fill="#6F75B9"/>
<path d="M12.0061 10.2567L11.9333 10.3299V10.2567H12.0061Z" fill="#6F74B8"/>
<path d="M10.2979 21.3144L10.1903 21.2058L10.3742 21.0203V21.3144H10.2979Z" fill="#6489C7"/>
<path d="M10.1903 21.2058L9.96428 20.9778L10.3742 20.5642V21.0203L10.1903 21.2058Z" fill="#6588C6"/>
<path d="M9.96428 20.9778L9.73828 20.7498L10.3742 20.1085V20.5642L9.96428 20.9778Z" fill="#6587C6"/>
<path d="M9.73828 20.7498L9.51255 20.5221L10.3742 19.6527V20.1085L9.73828 20.7498Z" fill="#6686C5"/>
<path d="M9.51255 20.5221L9.28654 20.294L10.3742 19.1967V19.6527L9.51255 20.5221Z" fill="#6685C4"/>
<path d="M9.28654 20.294L9.06054 20.066L10.3742 18.741V19.1967L9.28654 20.294Z" fill="#6784C3"/>
<path d="M9.06054 20.066L8.83481 19.8383L10.3742 18.2849V18.741L9.06054 20.066Z" fill="#6783C3"/>
<path d="M8.83481 19.8383L8.81485 19.8182V19.4024L10.3742 17.8292V18.2849L8.83481 19.8383Z" fill="#6882C2"/>
<path d="M8.81485 18.9464L10.3742 17.3734V17.8292L8.81485 19.4024V18.9464Z" fill="#6881C1"/>
<path d="M8.81485 18.4906L10.3742 16.9174V17.3734L8.81485 18.9464V18.4906Z" fill="#6980C1"/>
<path d="M8.81485 18.0346L10.3742 16.4617V16.9174L8.81485 18.4906V18.0346Z" fill="#697FC0"/>
<path d="M8.81485 17.5789L10.3742 16.0056V16.4617L8.81485 18.0346V17.5789Z" fill="#6A7EBF"/>
<path d="M8.81485 17.1231L10.3742 15.5499V16.0056L8.81485 17.5789V17.1231Z" fill="#6A7DBE"/>
<path d="M8.81485 16.6671L10.3742 15.0942V15.5499L8.81485 17.1231V16.6671Z" fill="#6B7CBE"/>
<path d="M8.81485 16.2114L10.3742 14.6381V15.0942L8.81485 16.6671V16.2114Z" fill="#6B7BBD"/>
<path d="M8.81485 15.7553L10.3742 14.1824V14.6381L8.81485 16.2114V15.7553Z" fill="#6C7ABC"/>
<path d="M8.81485 15.2996L10.3742 13.7264V14.1824L8.81485 15.7553V15.2996Z" fill="#6C79BC"/>
<path d="M8.81485 14.8438L10.3742 13.2706V13.7264L8.81485 15.2996V14.8438Z" fill="#6D78BB"/>
<path d="M8.81485 14.3878L10.3742 12.8149V13.2706L8.81485 14.8438V14.3878Z" fill="#6D77BA"/>
<path d="M8.81485 13.9321L10.0711 12.6647H10.3742V12.8149L8.81485 14.3878V13.9321Z" fill="#6E76B9"/>
<path d="M8.81485 13.476L9.61907 12.6647H10.0711L8.81485 13.9321V13.476Z" fill="#6F75B9"/>
<path d="M8.81485 13.0203L9.16734 12.6647H9.61907L8.81485 13.476V13.0203Z" fill="#6F74B8"/>
<path d="M9.16734 12.6647L8.81485 13.0203V12.6647H9.16734Z" fill="#7073B7"/>
<path d="M21.855 21.2896L22.1621 20.9797V21.2896H21.855Z" fill="#57A3D9"/>
<path d="M21.4032 21.2896L22.1621 20.524V20.9797L21.855 21.2896H21.4032Z" fill="#57A2D9"/>
<path d="M20.9512 21.2896L22.1621 20.0679V20.524L21.4032 21.2896H20.9512Z" fill="#58A1D8"/>
<path d="M20.6236 21.1645L22.1621 19.6122V20.0679L20.9512 21.2896H20.6236V21.1645Z" fill="#58A0D7"/>
<path d="M20.6236 20.7084L22.1621 19.1564V19.6122L20.6236 21.1645V20.7084Z" fill="#599FD7"/>
<path d="M20.6236 20.2527L22.1621 18.7004V19.1564L20.6236 20.7084V20.2527Z" fill="#599ED6"/>
<path d="M20.6236 19.7967L22.1621 18.2447V18.7004L20.6236 20.2527V19.7967Z" fill="#5A9DD5"/>
<path d="M20.6236 19.3409L22.1621 17.7887V18.2447L20.6236 19.7967V19.3409Z" fill="#5A9CD5"/>
<path d="M20.6236 18.8852L22.1621 17.3329V17.7887L20.6236 19.3409V18.8852Z" fill="#5B9BD4"/>
<path d="M20.6236 18.4291L22.1621 16.8772V17.3329L20.6236 18.8852V18.4291Z" fill="#5B9AD3"/>
<path d="M20.6236 17.9734L22.1621 16.4211V16.8772L20.6236 18.4291V17.9734Z" fill="#5C99D2"/>
<path d="M20.6236 17.5174L22.1621 15.9654V16.4211L20.6236 17.9734V17.5174Z" fill="#5D98D2"/>
<path d="M20.6236 17.0616L22.1621 15.5096V15.9654L20.6236 17.5174V17.0616Z" fill="#5D97D1"/>
<path d="M20.6236 16.6059L22.1621 15.0536V15.5096L20.6236 17.0616V16.6059Z" fill="#5E96D0"/>
<path d="M20.6236 16.1499L22.1621 14.5979V15.0536L20.6236 16.6059V16.1499Z" fill="#5E95D0"/>
<path d="M20.6236 15.6941L22.1508 14.1533L22.1621 14.1647V14.5979L20.6236 16.1499V15.6941Z" fill="#5F94CF"/>
<path d="M20.6236 15.2381L21.9248 13.9253L22.1508 14.1533L20.6236 15.6941V15.2381Z" fill="#5F93CE"/>
<path d="M20.6236 14.7823L21.6988 13.6975L21.9248 13.9253L20.6236 15.2381V14.7823Z" fill="#6092CD"/>
<path d="M20.6236 14.3266L21.4731 13.4695L21.6988 13.6975L20.6236 14.7823V14.3266Z" fill="#6091CD"/>
<path d="M20.6236 13.8706L21.2471 13.2415L21.4731 13.4695L20.6236 14.3266V13.8706Z" fill="#6190CC"/>
<path d="M20.6236 13.4148L21.0211 13.0138L21.2471 13.2415L20.6236 13.8706V13.4148Z" fill="#618FCB"/>
<path d="M20.6236 12.9588L20.7953 12.7857L21.0211 13.0138L20.6236 13.4148V12.9588Z" fill="#628ECB"/>
<path d="M20.6999 12.6894L20.7953 12.7857L20.6236 12.9588V12.6894H20.6999Z" fill="#628DCA"/>
<path d="M22.742 31.7909L29.4856 24.9873V31.7909H22.742Z" fill="#4BBBEA"/>
<path d="M22.2902 31.7909L29.4856 24.5316V24.9873L22.742 31.7909H22.2902Z" fill="#4BBBEA"/>
<path d="M21.8385 31.7909L29.4856 24.0758V24.5316L22.2902 31.7909H21.8385Z" fill="#4BBAE9"/>
<path d="M21.3865 31.7909L29.4856 23.6198V24.0758L21.8385 31.7909H21.3865Z" fill="#4CB9E9"/>
<path d="M20.9348 31.7909L29.4856 23.164V23.6198L21.3865 31.7909H20.9348Z" fill="#4CB8E8"/>
<path d="M20.4828 31.7909L29.4856 22.708V23.164L20.9348 31.7909H20.4828Z" fill="#4DB7E7"/>
<path d="M20.031 31.7909L29.4856 22.2523V22.708L20.4828 31.7909H20.031Z" fill="#4DB6E7"/>
<path d="M19.5793 31.7909L29.4856 21.7965V22.2523L20.031 31.7909H19.5793Z" fill="#4EB5E6"/>
<path d="M19.1273 31.7909L29.4856 21.3405V21.7965L19.5793 31.7909H19.1273Z" fill="#4EB4E5"/>
<path d="M18.6756 31.7909L29.4856 20.8848V21.3405L19.1273 31.7909H18.6756Z" fill="#4FB3E5"/>
<path d="M18.2236 31.7909L29.4856 20.4287V20.8848L18.6756 31.7909H18.2236Z" fill="#4FB2E4"/>
<path d="M17.7718 31.7909L29.4856 19.973V20.4287L18.2236 31.7909H17.7718Z" fill="#50B1E3"/>
<path d="M17.3201 31.7909L29.4856 19.5172V19.973L17.7718 31.7909H17.3201Z" fill="#50B0E3"/>
<path d="M16.8681 31.7909L29.4856 19.0612V19.5172L17.3201 31.7909H16.8681Z" fill="#51AFE2"/>
<path d="M16.4164 31.7909L29.4856 18.6055V19.0612L16.8681 31.7909H16.4164Z" fill="#51AEE1"/>
<path d="M15.9644 31.7909L29.4856 18.1497V18.6055L16.4164 31.7909H15.9644Z" fill="#52ADE0"/>
<path d="M15.5396 31.7909L15.5261 31.7773L29.4856 17.6937V18.1497L15.9644 31.7909H15.5396Z" fill="#52ACE0"/>
<path d="M15.5261 31.7773L15.3001 31.5496L29.4856 17.2379V17.6937L15.5261 31.7773Z" fill="#53ABDF"/>
<path d="M15.3001 31.5496L15.0744 31.3216L29.4856 16.7819V17.2379L15.3001 31.5496Z" fill="#53AADE"/>
<path d="M15.0744 31.3216L14.8484 31.0935L29.4578 16.3542L29.4856 16.3822V16.7819L15.0744 31.3216Z" fill="#54A9DE"/>
<path d="M29.232 16.1266L14.6227 30.8659L14.8486 31.0939L29.458 16.3546L29.232 16.1266Z" fill="#54A8DD"/>
<path d="M29.006 15.8986L14.3966 30.6379L14.6226 30.8659L29.232 16.1266L29.006 15.8986Z" fill="#55A7DC"/>
<path d="M28.7802 15.6704L14.1708 30.4097L14.3968 30.6377L29.0061 15.8984L28.7802 15.6704Z" fill="#55A6DC"/>
<path d="M28.5541 15.4424L13.9448 30.1817L14.1707 30.4097L28.7801 15.6704L28.5541 15.4424Z" fill="#56A5DB"/>
<path d="M28.3283 15.2148L13.7189 29.9541L13.9449 30.1821L28.5543 15.4428L28.3283 15.2148Z" fill="#56A4DA"/>
<path d="M28.1023 14.9868L13.4929 29.7261L13.7189 29.9541L28.3282 15.2148L28.1023 14.9868Z" fill="#57A3D9"/>
<path d="M27.8764 14.7586L13.267 29.4979L13.493 29.7259L28.1024 14.9866L27.8764 14.7586Z" fill="#57A2D9"/>
<path d="M27.6506 14.5311L13.0412 29.2704L13.2672 29.4983L27.8766 14.7591L27.6506 14.5311Z" fill="#58A1D8"/>
<path d="M27.4243 14.3031L12.8149 29.0423L13.0409 29.2703L27.6503 14.5311L27.4243 14.3031Z" fill="#58A0D7"/>
<path d="M27.1984 14.0749L12.5891 28.8141L12.815 29.0421L27.4244 14.3029L27.1984 14.0749Z" fill="#599FD7"/>
<path d="M26.9726 13.8473L12.3632 28.5866L12.5892 28.8146L27.1986 14.0753L26.9726 13.8473Z" fill="#599ED6"/>
<path d="M26.7466 13.6193L12.1372 28.3586L12.3632 28.5866L26.9725 13.8473L26.7466 13.6193Z" fill="#5A9DD5"/>
<path d="M26.5207 13.3911L11.9114 28.1304L12.1373 28.3584L26.7467 13.6191L26.5207 13.3911Z" fill="#5A9CD5"/>
<path d="M26.2947 13.1631L11.6853 27.9024L11.9113 28.1304L26.5207 13.3911L26.2947 13.1631Z" fill="#5B9BD4"/>
<path d="M26.0689 12.9355L11.4595 27.6748L11.6855 27.9028L26.2948 13.1635L26.0689 12.9355Z" fill="#5B9AD3"/>
<path d="M25.8428 12.7075L11.2335 27.4468L11.4594 27.6748L26.0688 12.9355L25.8428 12.7075Z" fill="#5C99D2"/>
<path d="M25.617 12.4793L11.0076 27.2186L11.2336 27.4466L25.843 12.7073L25.617 12.4793Z" fill="#5D98D2"/>
<path d="M25.3911 12.2518L10.7818 26.9911L11.0078 27.2191L25.6171 12.4798L25.3911 12.2518Z" fill="#5D97D1"/>
<path d="M25.1651 12.0238L10.5557 26.7631L10.7817 26.991L25.3911 12.2518L25.1651 12.0238Z" fill="#5E96D0"/>
<path d="M24.9393 11.7956L10.3299 26.5349L10.5559 26.7628L25.1652 12.0236L24.9393 11.7956Z" fill="#5E95D0"/>
<path d="M24.7134 11.568L10.1041 26.3073L10.33 26.5353L24.9394 11.796L24.7134 11.568Z" fill="#5F94CF"/>
<path d="M24.4874 11.34L9.87803 26.0793L10.104 26.3073L24.7134 11.568L24.4874 11.34Z" fill="#5F93CE"/>
<path d="M24.2616 11.1118L9.65219 25.8511L9.87817 26.0791L24.4875 11.3398L24.2616 11.1118Z" fill="#6092CD"/>
<path d="M24.0355 10.8838L9.42616 25.6231L9.65213 25.8511L24.2615 11.1118L24.0355 10.8838Z" fill="#6091CD"/>
<path d="M23.8097 10.6563L9.20032 25.3955L9.4263 25.6235L24.0357 10.8842L23.8097 10.6563Z" fill="#6190CC"/>
<path d="M23.5837 10.4282L8.97429 25.1675L9.20026 25.3955L23.8096 10.6562L23.5837 10.4282Z" fill="#618FCB"/>
<path d="M23.3578 10.2L8.74844 24.9393L8.97442 25.1673L23.5838 10.428L23.3578 10.2Z" fill="#628ECB"/>
<path d="M23.132 9.97249L8.52261 24.7118L8.74859 24.9398L23.358 10.2005L23.132 9.97249Z" fill="#628DCA"/>
<path d="M22.9059 9.74449L8.29657 24.4838L8.52255 24.7118L23.1319 9.97248L22.9059 9.74449Z" fill="#638CC9"/>
<path d="M22.6801 9.51628L8.07073 24.2556L8.29671 24.4835L22.9061 9.74427L22.6801 9.51628Z" fill="#638BC8"/>
<path d="M22.4543 9.28874L7.84489 24.028L8.07087 24.256L22.6802 9.51673L22.4543 9.28874Z" fill="#648AC8"/>
<path d="M22.2282 9.06072L7.61887 23.8L7.84485 24.028L22.4542 9.28871L22.2282 9.06072Z" fill="#6489C7"/>
<path d="M22.0024 8.83252L7.39302 23.5718L7.619 23.7998L22.2284 9.06051L22.0024 8.83252Z" fill="#6588C6"/>
<path d="M21.7766 8.6047L7.16718 23.344L7.39316 23.572L22.0025 8.83269L21.7766 8.6047Z" fill="#6587C6"/>
<path d="M21.5505 8.37696L6.94115 23.1162L7.16713 23.3442L21.7765 8.60495L21.5505 8.37696Z" fill="#6686C5"/>
<path d="M21.3245 8.14895L6.71512 22.8882L6.9411 23.1162L21.5505 8.37694L21.3245 8.14895Z" fill="#6685C4"/>
<path d="M21.0986 7.92075L6.48928 22.66L6.71526 22.888L21.3246 8.14874L21.0986 7.92075Z" fill="#6784C3"/>
<path d="M20.8728 7.6932L6.26344 22.4325L6.48942 22.6605L21.0988 7.92119L20.8728 7.6932Z" fill="#6783C3"/>
<path d="M20.6468 7.46519L6.03741 22.2045L6.26339 22.4325L20.8728 7.69318L20.6468 7.46519Z" fill="#6882C2"/>
<path d="M20.4209 7.23699L5.81157 21.9763L6.03755 22.2043L20.6469 7.46498L20.4209 7.23699Z" fill="#6881C1"/>
<path d="M20.1951 7.00944L5.58572 21.7487L5.8117 21.9767L20.4211 7.23743L20.1951 7.00944Z" fill="#6980C1"/>
<path d="M19.9691 6.78143L5.3597 21.5207L5.58568 21.7487L20.195 7.00942L19.9691 6.78143Z" fill="#697FC0"/>
<path d="M19.7432 6.55323L5.13386 21.2925L5.35984 21.5205L19.9692 6.78122L19.7432 6.55323Z" fill="#6A7EBF"/>
<path d="M19.5174 6.32568L4.90801 21.065L5.13399 21.2929L19.7434 6.55367L19.5174 6.32568Z" fill="#6A7DBE"/>
<path d="M19.2914 6.09767L4.68198 20.8369L4.90796 21.0649L19.5173 6.32566L19.2914 6.09767Z" fill="#6B7CBE"/>
<path d="M19.0655 5.86947L4.45615 20.6087L4.68213 20.8367L19.2915 6.09746L19.0655 5.86947Z" fill="#6B7BBD"/>
<path d="M18.8395 5.64146L4.23011 20.3807L4.45609 20.6087L19.0655 5.86945L18.8395 5.64146Z" fill="#6C7ABC"/>
<path d="M18.6136 5.41391L4.00427 20.1532L4.23025 20.3812L18.8396 5.6419L18.6136 5.41391Z" fill="#6C79BC"/>
<path d="M18.3876 5.1859L3.77824 19.9252L4.00422 20.1532L18.6136 5.41389L18.3876 5.1859Z" fill="#6D78BB"/>
<path d="M18.1618 4.9577L3.5524 19.697L3.77838 19.925L18.3877 5.18569L18.1618 4.9577Z" fill="#6D77BA"/>
<path d="M17.9359 4.73015L3.32656 19.4694L3.55254 19.6974L18.1619 4.95814L17.9359 4.73015Z" fill="#6E76B9"/>
<path d="M17.7099 4.50214L3.10052 19.2414L3.3265 19.4694L17.9359 4.73013L17.7099 4.50214Z" fill="#6F75B9"/>
<path d="M17.4841 4.27394L2.87469 19.0132L3.10067 19.2412L17.71 4.50193L17.4841 4.27394Z" fill="#6F74B8"/>
<path d="M17.2582 4.04639L2.64885 18.7857L2.87483 19.0137L17.4842 4.27438L17.2582 4.04639Z" fill="#7073B7"/>
<path d="M17.0322 3.81838L2.42282 18.5577L2.6488 18.7856L17.2582 4.04637L17.0322 3.81838Z" fill="#7072B7"/>
<path d="M16.8063 3.59018L2.19698 18.3295L2.42296 18.5574L17.0323 3.81817L16.8063 3.59018Z" fill="#7171B6"/>
<path d="M16.5803 3.36217L1.97095 18.1014L2.19693 18.3294L16.8063 3.59016L16.5803 3.36217Z" fill="#7170B5"/>
<path d="M16.3545 3.13462L1.7451 17.8739L1.97108 18.1019L16.5804 3.36261L16.3545 3.13462Z" fill="#726FB4"/>
<path d="M16.1284 2.90661L1.51907 17.6459L1.74505 17.8739L16.3544 3.1346L16.1284 2.90661Z" fill="#726EB4"/>
<path d="M1.51917 17.6458L1.49139 17.6178V17.2181L15.9026 2.67845L16.1286 2.90646L1.51917 17.6458Z" fill="#736DB3"/>
<path d="M1.49139 16.7623L15.6766 2.45071L15.9026 2.67845L1.49139 17.2181V16.7623Z" fill="#736BB2"/>
<path d="M1.49139 16.3063L15.4509 2.2227L15.6766 2.45071L1.49139 16.7623V16.3063Z" fill="#746AB2"/>
<path d="M1.49139 15.8506L15.0124 2.20909H15.4374L15.4509 2.2227L1.49139 16.3063V15.8506Z" fill="#7469B1"/>
<path d="M1.49139 15.3945L14.5606 2.20909H15.0124L1.49139 15.8506V15.3945Z" fill="#7568B0"/>
<path d="M1.49139 14.9388L14.1089 2.20909H14.5606L1.49139 15.3945V14.9388Z" fill="#7567AF"/>
<path d="M1.49139 14.483L13.6569 2.20909H14.1089L1.49139 14.9388V14.483Z" fill="#7666AF"/>
<path d="M1.49139 14.027L13.2052 2.20909H13.6569L1.49139 14.483V14.027Z" fill="#7665AE"/>
<path d="M1.49139 13.5713L12.7532 2.20909H13.2052L1.49139 14.027V13.5713Z" fill="#7764AD"/>
<path d="M1.49139 13.1152L12.3014 2.20909H12.7532L1.49139 13.5713V13.1152Z" fill="#7763AC"/>
<path d="M1.49139 12.6595L11.8497 2.20909H12.3014L1.49139 13.1152V12.6595Z" fill="#7862AC"/>
<path d="M1.49139 12.2037L11.3977 2.20909H11.8497L1.49139 12.6595V12.2037Z" fill="#7861AB"/>
<path d="M1.49139 11.7477L10.946 2.20909H11.3977L1.49139 12.2037V11.7477Z" fill="#7960AA"/>
<path d="M1.49139 11.292L10.494 2.20909H10.946L1.49139 11.7477V11.292Z" fill="#795FAA"/>
<path d="M1.49139 10.836L10.0422 2.20909H10.494L1.49139 11.292V10.836Z" fill="#7A5EA9"/>
<path d="M1.49139 10.3802L9.59049 2.20909H10.0422L1.49139 10.836V10.3802Z" fill="#7A5DA8"/>
<path d="M1.49139 9.92445L9.13849 2.20909H9.59049L1.49139 10.3802V9.92445Z" fill="#7B5CA7"/>
<path d="M1.49139 9.46843L8.68675 2.20909H9.13849L1.49139 9.92445V9.46843Z" fill="#7B5BA7"/>
<path d="M1.49139 9.01268L8.23475 2.20909H8.68675L1.49139 9.46843V9.01268Z" fill="#7C5AA6"/>
<path d="M8.23475 2.20909L1.49139 9.01268V2.20909H8.23475Z" fill="#7C5AA6"/>
</g>
<mask id="mask1_1019_33137" style="mask-type:luminance" maskUnits="userSpaceOnUse" x="13" y="28" width="1" height="1">
<path d="M13.9489 28.8613H13.9333C13.9386 28.8621 13.9437 28.8626 13.9489 28.8633V28.8613Z" fill="white"/>
</mask>
<g mask="url(#mask1_1019_33137)">
<path d="M13.9488 28.8634L13.9497 28.8626L13.949 28.8634H13.9488Z" fill="#4DB7E7"/>
<path d="M13.9488 28.8634L13.9497 28.8624V28.8626L13.9488 28.8634Z" fill="#4DB6E7"/>
<path d="M13.9485 28.8639L13.9503 28.8621V28.8625L13.9489 28.8639H13.9485Z" fill="#4EB5E6"/>
<path d="M13.9482 28.864L13.9504 28.8618V28.8622L13.9486 28.864H13.9482Z" fill="#4EB4E5"/>
<path d="M13.948 28.8633L13.9497 28.8618L13.9482 28.8633H13.948Z" fill="#4FB3E5"/>
<path d="M13.948 28.8633L13.9497 28.8616V28.8618L13.948 28.8633Z" fill="#4FB2E4"/>
<path d="M13.9477 28.8633L13.9497 28.8613V28.8616L13.9479 28.8633H13.9477Z" fill="#50B1E3"/>
<path d="M13.9474 28.8633L13.9496 28.8613L13.9477 28.8633H13.9474Z" fill="#50B0E3"/>
<path d="M13.9333 28.8633L13.9353 28.8613H13.9355L13.9333 28.8633Z" fill="#7665AE"/>
<path d="M13.9333 28.863L13.935 28.8613H13.9353L13.9333 28.8633V28.863Z" fill="#7764AD"/>
<path d="M13.9333 28.8628L13.935 28.8613L13.9333 28.863V28.8628Z" fill="#7763AC"/>
<path d="M13.9333 28.8628L13.9348 28.8613H13.935L13.9333 28.8628Z" fill="#7862AC"/>
<path d="M13.9333 28.8631L13.9351 28.8613H13.9355L13.9333 28.8635V28.8631Z" fill="#7861AB"/>
<path d="M13.9333 28.8628L13.9351 28.8613L13.9333 28.8631V28.8628Z" fill="#7960AA"/>
<path d="M13.9333 28.8621L13.9343 28.8613H13.9346L13.9333 28.8623V28.8621Z" fill="#795FAA"/>
<path d="M13.9333 28.862L13.9341 28.8612H13.9343L13.9333 28.862Z" fill="#7A5EA9"/>
<path d="M13.9333 28.8622L13.9342 28.8613H13.9346L13.9333 28.8626V28.8622Z" fill="#7A5DA8"/>
<path d="M13.9333 28.8615L13.9338 28.8612L13.9333 28.8617V28.8615Z" fill="#7B5CA7"/>
<path d="M13.9333 28.8615L13.9336 28.8612H13.9338L13.9333 28.8615Z" fill="#7B5BA7"/>
<path d="M13.9333 28.8613H13.9346L13.9333 28.8626V28.8613Z" fill="#7C5AA6"/>
</g>
</g>
<defs>
<clipPath id="clip0_1019_33137">
<rect width="92" height="34" fill="white"/>
</clipPath>
</defs>
</svg>
