<svg width="143" height="38" viewBox="0 0 143 38" fill="none" xmlns="http://www.w3.org/2000/svg">
<g filter="url(#filter0_dd_1894_485083)">
<g clip-path="url(#clip0_1894_485083)">
<path d="M29.6431 24.1125L24.104 24.1217C24.1024 24.1234 24.1012 24.1251 24.0996 24.1268C24.0952 24.132 24.091 24.1372 24.0866 24.1423L24.0727 24.1399L24.0562 24.1369C23.8981 24.325 23.7322 24.5075 23.5588 24.684C22.7055 25.5522 21.7112 26.2344 20.603 26.7113C20.3541 26.8183 20.102 26.914 19.847 26.9981V25.0243C22.5643 23.8963 24.4792 21.1804 24.4792 18.0096C24.4792 15.5134 23.2923 13.2992 21.4613 11.9195C21.4598 11.9184 21.4584 11.9172 21.4568 11.9161C20.9499 11.5346 20.3937 11.2173 19.8 10.9756V7.48082C19.616 7.43017 19.4307 7.38483 19.2445 7.34466C18.9593 7.2831 18.6713 7.2336 18.3812 7.19629V10.5596C17.9454 10.4787 17.4963 10.4365 17.0375 10.4365C16.5357 10.4365 16.0456 10.487 15.5717 10.5835V7.20734C14.6365 7.3359 13.7247 7.59001 12.8479 7.96753C12.2121 8.24101 11.5995 8.57949 11.0265 8.9735C10.4603 9.36263 9.92816 9.80959 9.44455 10.3016C9.39788 10.3491 9.35192 10.3969 9.30638 10.4451L6.84815 10.4491H6.82037C7.20613 9.9106 7.63419 9.40109 8.09693 8.93031C8.665 8.35221 9.29045 7.82705 9.95566 7.36962C10.6292 6.90659 11.3495 6.50885 12.0971 6.18716C12.2209 6.13393 12.3455 6.0827 12.471 6.03363V4.52689C12.4648 4.52904 12.4584 4.53148 12.4522 4.53363V4.51426C12.1467 4.62102 11.8448 4.73839 11.5479 4.86609C10.7167 5.22394 9.91547 5.66645 9.1668 6.18128C8.44293 6.67888 7.76151 7.24852 7.14099 7.87526C7.12111 7.89521 7.10137 7.9153 7.08164 7.93524C7.0681 7.94902 7.05471 7.96279 7.04145 7.97656C6.4332 8.60288 5.8798 9.28974 5.39563 10.0189C5.30116 10.1614 5.20881 10.3058 5.11942 10.452C4.83842 10.9101 4.34776 11.8875 4.34776 11.8875L9.87712 11.8784L9.93408 11.8708C9.93564 11.869 9.94367 11.8633 9.94367 11.8633C10.1017 11.6752 10.2677 11.4927 10.4411 11.3162C11.2944 10.448 12.2887 9.76583 13.3969 9.28888C13.6458 9.18184 13.8979 9.08614 14.1529 9.00205V10.9758C11.4355 12.1039 9.52069 14.8198 9.52069 17.9905C9.52069 20.4882 10.7087 22.703 12.5409 24.0825C13.043 24.4606 13.5934 24.7757 14.1811 25.0169C14.1873 25.0193 14.1937 25.0219 14.1999 25.0245V28.5192C14.3839 28.5699 14.5691 28.6152 14.7554 28.6554C15.0406 28.7169 15.3285 28.7664 15.6187 28.8037V25.4402C16.0545 25.5212 16.5036 25.5636 16.9624 25.5636C17.4575 25.5636 17.9413 25.5143 18.4094 25.4204C18.4156 25.4191 18.4219 25.4179 18.4281 25.4165V28.7927C18.9076 28.7268 19.3812 28.6278 19.847 28.4961C20.2892 28.371 20.7249 28.2165 21.152 28.0325C21.7877 27.759 22.4004 27.4205 22.9734 27.0265C23.5396 26.6374 24.0717 26.1904 24.5553 25.6984C24.5896 25.6636 24.6235 25.6284 24.657 25.5933C24.6692 25.5806 24.6814 25.5679 24.6935 25.5549H24.7492L27.1468 25.5509H27.1795C26.7937 26.0894 26.3657 26.5989 25.9029 27.0697C25.3349 27.6478 24.7094 28.173 24.0442 28.6304C23.3707 29.0934 22.6503 29.4912 21.9028 29.8129C21.779 29.8661 21.6544 29.9173 21.5289 29.9664V31.4731C21.5351 31.471 21.5414 31.4687 21.5476 31.4664V31.4858C21.8532 31.379 22.155 31.2616 22.452 31.1339C23.2831 30.7761 24.0844 30.3336 24.8331 29.8188C25.5569 29.3212 26.2383 28.7515 26.8589 28.1248C26.8724 28.1111 26.8859 28.0977 26.8995 28.0839C26.9192 28.0638 26.9389 28.0437 26.9584 28.0235C27.5667 27.3972 28.1201 26.7103 28.6042 25.9811C28.6987 25.8386 28.791 25.6943 28.8804 25.5481C29.1614 25.0899 29.4173 24.6144 29.6453 24.1268L29.6521 24.1125H29.6431ZM21.6417 14.07C22.51 15.1335 23.0323 16.4999 23.0323 17.9905C23.0323 19.4812 22.51 20.8476 21.6417 21.9111V14.07ZM12.3772 21.9338C11.4977 20.8673 10.9679 19.4921 10.9679 17.9907C10.9679 16.4893 11.4978 15.1141 12.3772 14.0476V21.934V21.9338ZM13.7866 12.7948C14.717 12.1978 15.8188 11.8518 17 11.8518C18.1812 11.8518 19.2979 12.2022 20.2321 12.8069V17.2734H13.7865V12.7948H13.7866ZM17 24.1294C15.8188 24.1294 14.717 23.7835 13.7866 23.1864V18.7078H20.2323V23.1744C19.2979 23.779 18.1893 24.1294 17.0001 24.1294H17ZM16.9812 29.7901C16.3129 29.7901 15.7288 30.1559 15.4116 30.7018C15.4111 30.7025 15.4109 30.7033 15.4103 30.7039C15.4045 30.7033 15.3986 30.7026 15.3928 30.7018C15.0766 30.661 14.762 30.6082 14.4508 30.5434C13.6394 30.3745 12.8412 30.1222 12.0785 29.7939C11.8482 29.6949 11.6209 29.5886 11.3965 29.4755C10.9053 29.2257 10.4293 28.9431 9.97469 28.6307C9.30948 28.1733 8.68403 27.6481 8.11597 27.07C8.11272 27.0667 8.10976 27.0637 8.10652 27.0604C8.10328 27.0571 8.10032 27.0541 8.09707 27.0508C7.53648 26.478 7.02693 25.8481 6.58223 25.1783C6.12725 24.4929 5.73641 23.7598 5.4203 22.999C5.09771 22.2228 4.84984 21.4107 4.68389 20.5848C4.51413 19.7408 4.42813 18.8746 4.42813 18.0095C4.42813 17.1444 4.51413 16.2782 4.68389 15.4342C4.69785 15.3651 4.71223 15.2959 4.72746 15.2269H6.61734C6.38625 16.1239 6.26965 17.0486 6.26965 17.9903C6.26965 19.4597 6.55347 20.8878 7.11336 22.2348C7.37378 22.8617 7.69425 23.4668 8.06606 24.0343C8.0779 24.0525 8.0896 24.0704 8.10159 24.0884C8.48424 24.6646 8.9233 25.2061 9.40691 25.6983L9.42566 25.7174C9.90391 26.2018 10.4297 26.6421 10.9887 27.0264C11.3783 27.2941 12.3205 27.8062 12.3205 27.8062V26.1814C11.6372 25.7746 11.0079 25.2799 10.441 24.7031L10.4315 24.6935C10.4283 24.6902 10.4253 24.6871 10.4221 24.6838C9.56891 23.8155 8.89863 22.8036 8.42996 21.6758C7.94395 20.5066 7.69764 19.2666 7.69764 17.9901C7.69764 16.7137 7.94395 15.4735 8.42996 14.3044C8.503 14.1285 8.58111 13.9555 8.66387 13.7854H3.62221C3.48826 14.2272 3.37504 14.6756 3.28438 15.1276C3.09559 16.066 3 17.0291 3 17.9904C3 18.9518 3.09559 19.9148 3.28438 20.8531C3.46909 21.7717 3.74459 22.6752 4.10356 23.5387C4.21889 23.8162 4.34311 24.0903 4.47607 24.3603C4.48241 24.3733 4.4889 24.3863 4.49524 24.3993C4.76271 24.9388 5.06387 25.4618 5.39591 25.9619C5.89559 26.7146 6.46916 27.4221 7.10067 28.0648C7.73204 28.7076 8.42742 29.2912 9.16708 29.7997C9.91576 30.3145 10.717 30.757 11.5482 31.1149C12.3967 31.4802 13.2845 31.7605 14.1872 31.9485C14.522 32.0182 14.8601 32.0755 15.2001 32.1201C15.2033 32.1206 15.2064 32.1208 15.2097 32.1213C15.2129 32.1217 15.2163 32.122 15.2194 32.1224C15.2212 32.1293 15.2229 32.1358 15.2249 32.1425C15.4385 32.9256 16.1442 33.5002 16.9814 33.5002C17.8186 33.5002 18.5315 32.9196 18.7411 32.1303C18.7823 31.9758 18.8043 31.8131 18.8043 31.6452C18.8043 31.3027 18.7129 30.9816 18.5538 30.7062C18.2371 30.1581 17.6514 29.7902 16.9814 29.7902L16.9812 29.7901ZM30.9999 17.9197C30.9953 16.9818 30.8998 16.043 30.7158 15.128C30.5311 14.2094 30.2556 13.3059 29.8966 12.4424C29.5449 11.5966 29.1101 10.7811 28.6042 10.0192C28.1045 9.2665 27.531 8.55897 26.8995 7.9163C26.2681 7.27349 25.5727 6.68993 24.8331 6.18142C24.0844 5.66659 23.2831 5.22409 22.452 4.86623C21.6035 4.50092 20.7156 4.22055 19.813 4.03258C19.4701 3.96127 19.1237 3.90287 18.7753 3.85782C18.5616 3.07482 17.8561 2.50016 17.0188 2.50016C16.1814 2.50016 15.4687 3.0807 15.259 3.87002C15.2178 4.02455 15.1958 4.18726 15.1958 4.35514C15.1958 4.69764 15.2872 5.01876 15.4464 5.29411C15.7631 5.84222 16.3487 6.21012 17.0188 6.21012C17.6888 6.21012 18.2712 5.84423 18.5883 5.29841C18.5887 5.29769 18.5893 5.29712 18.5896 5.29626C18.5953 5.29683 18.6013 5.29755 18.607 5.29841C18.9233 5.33916 19.2379 5.39196 19.5493 5.45682C20.3607 5.6257 21.1589 5.87795 21.9215 6.20624C22.1552 6.30683 22.3861 6.41473 22.6138 6.5298C22.6258 6.53597 22.6379 6.54185 22.6499 6.54802C23.1248 6.79209 23.585 7.06687 24.0253 7.36962C24.6905 7.82705 25.316 8.35221 25.884 8.93031L25.9028 8.9494C26.4634 9.52219 26.9729 10.1521 27.4176 10.8219C27.8726 11.5073 28.2634 12.2404 28.5796 13.0011C28.9021 13.7774 29.15 14.5895 29.316 15.4153C29.4857 16.2593 29.5717 17.1255 29.5717 17.9905C29.5717 18.8556 29.4857 19.7218 29.316 20.5658C29.302 20.635 29.2876 20.7041 29.2724 20.7732H27.3825C27.6136 19.8761 27.7302 18.9515 27.7302 18.0098C27.7302 16.5403 27.4464 15.1122 26.8865 13.7652C26.6261 13.1383 26.3056 12.5332 25.9338 11.9657C25.9221 11.9475 25.9101 11.9296 25.8983 11.9116C25.5156 11.3354 25.0766 10.7939 24.5929 10.3017C24.5897 10.2984 24.5867 10.2954 24.5835 10.2921C24.5803 10.2888 24.5773 10.2858 24.5741 10.2825C24.0958 9.79811 23.57 9.35761 23.011 8.9735C22.643 8.72054 22.2585 8.49082 21.8622 8.28635C21.8565 8.28348 21.7803 8.24617 21.6792 8.19739V9.81834C22.3626 10.2251 22.9918 10.7199 23.5588 11.2967L23.5775 11.3158C24.4307 12.1841 25.101 13.196 25.5696 14.3238C26.0556 15.493 26.3019 16.733 26.3019 18.0095C26.3019 19.2859 26.0556 20.5261 25.5696 21.6952C25.4966 21.8711 25.4185 22.0442 25.3357 22.2142H30.3778C30.5117 21.7724 30.625 21.324 30.7156 20.872C30.8996 19.9569 30.9952 19.0182 30.9997 18.0804C30.9999 18.0568 30.9999 18.0332 30.9999 18.0095V17.9881C30.9999 17.9652 30.9999 17.9423 30.9997 17.9195L30.9999 17.9197Z" fill="white"/>
<path d="M15.6094 28.8146H15.5943C15.5994 28.8153 15.6043 28.8159 15.6094 28.8168V28.8146Z" fill="white"/>
</g>
</g>
<path d="M37.6119 8.19384H40.9488V8.89855H39.6791V11.5745H38.8814V8.89855H37.6116V8.19384H37.6119Z" fill="white"/>
<path d="M45.7059 10.2364H44.0681V11.5745H43.2657V8.19384H44.0681V9.52245H45.7059V8.19384H46.5036V11.5745H45.7059V10.2364Z" fill="white"/>
<path d="M49.0662 8.19384H51.8697V8.86046H49.8686V9.46994H51.0628V10.151H49.8686V10.8747H52.0539V11.5748H49.0662V8.19411V8.19384Z" fill="white"/>
<path d="M43.2935 17.9972H39.6122V20.8256H38.3474V14.0642H39.6122V16.8544H43.2935V14.0642H44.5678V20.8256H43.2935V17.9972Z" fill="white"/>
<path d="M48.2019 20.9303C46.9748 20.9303 45.9554 19.9971 45.9554 18.4162C45.9554 16.8354 46.9748 15.9021 48.2113 15.9021C49.2213 15.9021 49.7027 16.5307 49.8065 16.7306V16.0069H51.0148V20.8256H49.816V20.0637C49.7216 20.2637 49.2496 20.9303 48.2019 20.9303ZM48.5228 16.9687C47.711 16.9687 47.1824 17.5972 47.1824 18.4162C47.1824 19.2352 47.711 19.8637 48.5228 19.8637C49.3346 19.8637 49.8254 19.2352 49.8254 18.4162C49.8254 17.5972 49.3063 16.9687 48.5228 16.9687Z" fill="white"/>
<path d="M54.0353 18.8543C52.9875 18.7686 52.2796 18.2924 52.2796 17.3496C52.2796 16.4069 53.1008 15.8736 54.3845 15.8736C56.093 15.8736 56.6122 16.7687 56.7255 17.2354H55.4512C55.3757 17.1306 55.083 16.7973 54.3751 16.7973C53.7993 16.7973 53.4973 16.9973 53.4973 17.283C53.4973 17.5496 53.6955 17.7306 54.1769 17.7877L54.9887 17.8734C56.2818 17.9877 56.8104 18.4924 56.8104 19.4352C56.8104 20.378 56.0553 20.9589 54.6016 20.9589C52.8271 20.9589 52.2513 19.9209 52.1569 19.4733H53.4501C53.4973 19.5876 53.7899 20.0161 54.6016 20.0161C55.2624 20.0161 55.5833 19.7876 55.5833 19.4828C55.5833 19.1781 55.4134 18.9971 54.8754 18.94C54.5356 18.9114 54.3657 18.8924 54.0353 18.8543Z" fill="white"/>
<path d="M59.2266 20.8256H58.0278V13.8166H59.2266V16.8163C59.4059 16.4735 59.944 15.9021 60.8124 15.9021C62.0111 15.9021 62.804 16.7878 62.804 18.0163V20.8256H61.5864V18.2543C61.5864 17.4925 61.1333 16.9878 60.4254 16.9878C59.7174 16.9878 59.2266 17.5115 59.2266 18.2543V20.8256Z" fill="white"/>
<path d="M66.2682 20.9113C65.0222 20.9113 63.9934 19.9685 63.9934 18.4067C63.9934 16.8449 65.0222 15.9021 66.2682 15.9021C67.2971 15.9021 67.8068 16.5497 67.9012 16.7402V16.0069H69.1094V20.7208C69.1094 22.0445 68.2693 22.9683 66.542 22.9683C64.7013 22.9683 64.1066 21.816 64.0311 21.4636H65.4187C65.4848 21.5589 65.7679 21.9588 66.542 21.9588C67.4104 21.9588 67.9106 21.5017 67.9106 20.7018V20.0352C67.8068 20.2447 67.3065 20.9113 66.2682 20.9113ZM66.5797 16.9687C65.7491 16.9687 65.2205 17.5877 65.2205 18.4067C65.2205 19.2257 65.7491 19.8447 66.5797 19.8447C67.4104 19.8447 67.9201 19.2067 67.9201 18.4067C67.9201 17.6068 67.3915 16.9687 66.5797 16.9687Z" fill="white"/>
<path d="M71.8657 20.8256H70.6669V16.0069H71.8657V16.8163C71.9884 16.5402 72.3565 15.9783 73.4137 15.9783H74.5275V17.1878H73.2532C72.2338 17.1878 71.8657 17.5306 71.8657 18.2924V20.8256Z" fill="white"/>
<path d="M77.4914 20.9303C76.2643 20.9303 75.2449 19.9971 75.2449 18.4162C75.2449 16.8354 76.2643 15.9021 77.5009 15.9021C78.5108 15.9021 78.9922 16.5307 79.0961 16.7306V16.0069H80.3043V20.8256H79.1055V20.0637C79.0111 20.2637 78.5392 20.9303 77.4914 20.9303ZM77.8123 16.9687C77.0006 16.9687 76.472 17.5972 76.472 18.4162C76.472 19.2352 77.0006 19.8637 77.8123 19.8637C78.6241 19.8637 79.115 19.2352 79.115 18.4162C79.115 17.5972 78.5958 16.9687 77.8123 16.9687Z" fill="white"/>
<path d="M83.0511 22.8445H81.8618V16.0069H83.0605V16.7687C83.1455 16.5878 83.6646 15.9021 84.7029 15.9021C85.9489 15.9021 86.9684 16.8449 86.9684 18.4162C86.9684 19.9875 85.9489 20.9303 84.7029 20.9303C83.6646 20.9303 83.1455 20.2828 83.0511 20.0923V22.8445ZM84.3915 19.8637C85.2221 19.8637 85.7507 19.2352 85.7507 18.4162C85.7507 17.5972 85.2221 16.9687 84.3915 16.9687C83.5608 16.9687 83.0417 17.5877 83.0417 18.4162C83.0417 19.2447 83.5702 19.8637 84.3915 19.8637Z" fill="white"/>
<path d="M89.4225 20.8256H88.2238V13.8166H89.4225V16.8163C89.6019 16.4735 90.1399 15.9021 91.0083 15.9021C92.2071 15.9021 93 16.7878 93 18.0163V20.8256H91.7823V18.2543C91.7823 17.4925 91.3293 16.9878 90.6213 16.9878C89.9134 16.9878 89.4225 17.5115 89.4225 18.2543V20.8256Z" fill="white"/>
<path d="M40.1198 27.042H38.5246L38.2743 27.6278H37.4674L38.9353 24.2422H39.7565L41.2196 27.6278H40.37L40.1198 27.042ZM39.8317 26.3659L39.322 25.1706L38.8123 26.3659H39.8317Z" fill="white"/>
<path d="M44.0794 25.1518C44.0794 25.3376 44.2398 25.4424 44.5325 25.4756C44.7167 25.4946 44.8534 25.5042 45.0611 25.5232C45.8256 25.5899 46.3308 25.8709 46.3308 26.5993C46.3308 27.2613 45.821 27.6899 44.844 27.6899C43.697 27.6899 43.2722 27.1089 43.1638 26.6279H44.0087C44.0796 26.8088 44.3251 27.0374 44.8442 27.0374C45.2879 27.0374 45.5004 26.885 45.5004 26.6565C45.5004 26.404 45.3116 26.3182 45.0141 26.2851C44.8159 26.2611 44.6743 26.2516 44.4807 26.2325C43.7444 26.1613 43.2582 25.8184 43.2582 25.185C43.2582 24.5516 43.8388 24.1851 44.6646 24.1851C45.7644 24.1851 46.1514 24.7088 46.2504 25.1423H45.4432C45.3677 25.0136 45.1363 24.8326 44.6643 24.8326C44.2914 24.8326 44.0791 24.9518 44.0791 25.1515L44.0794 25.1518Z" fill="white"/>
<path d="M49.3982 25.1518C49.3982 25.3376 49.5587 25.4424 49.8513 25.4756C50.0355 25.4946 50.1722 25.5042 50.3799 25.5232C51.1445 25.5899 51.6496 25.8709 51.6496 26.5993C51.6496 27.2613 51.1399 27.6899 50.1628 27.6899C49.0158 27.6899 48.591 27.1089 48.4826 26.6279H49.3276C49.3985 26.8088 49.6439 27.0374 50.1631 27.0374C50.6067 27.0374 50.8192 26.885 50.8192 26.6565C50.8192 26.404 50.6304 26.3182 50.333 26.2851C50.1348 26.2611 49.9932 26.2516 49.7995 26.2325C49.0633 26.1613 48.577 25.8184 48.577 25.185C48.577 24.5516 49.1577 24.1851 49.9835 24.1851C51.0833 24.1851 51.4703 24.7088 51.5692 25.1423H50.7621C50.6865 25.0136 50.4551 24.8326 49.9832 24.8326C49.6102 24.8326 49.398 24.9518 49.398 25.1515L49.3982 25.1518Z" fill="white"/>
<path d="M53.8818 25.9373C53.8818 24.8993 54.6559 24.1897 55.6613 24.1897C56.6667 24.1897 57.4358 24.8993 57.4358 25.9373C57.4358 26.9753 56.6618 27.685 55.6613 27.685C54.6607 27.685 53.8818 26.9707 53.8818 25.9373ZM56.6192 25.9373C56.6192 25.3706 56.2511 24.9135 55.661 24.9135C55.0709 24.9135 54.6982 25.3659 54.6982 25.9373C54.6982 26.5087 55.0712 26.9612 55.661 26.9612C56.2508 26.9612 56.6192 26.5087 56.6192 25.9373Z" fill="white"/>
<path d="M59.6727 25.9373C59.6727 24.9325 60.3852 24.1897 61.3906 24.1897C62.4809 24.1897 62.8963 24.9469 62.9764 25.3325H62.1597C62.0842 25.1991 61.8528 24.9181 61.3903 24.9181C60.8334 24.9181 60.4936 25.3801 60.4936 25.937C60.4936 26.494 60.8334 26.956 61.3903 26.956C61.886 26.956 62.0937 26.6703 62.1643 26.5419H62.9761C62.91 26.8798 62.5182 27.6847 61.3903 27.6847C60.3849 27.6847 59.6724 26.9419 59.6724 25.937L59.6727 25.9373Z" fill="white"/>
<path d="M65.355 24.2471H66.1574V27.6278H65.355V24.2471Z" fill="white"/>
<path d="M71.0563 27.042H69.4611L69.2108 27.6278H68.4039L69.8718 24.2422H70.693L72.1561 27.6278H71.3066L71.0563 27.042ZM70.7683 26.3659L70.2586 25.1706L69.7488 26.3659H70.7683Z" fill="white"/>
<path d="M73.7465 24.2471H77.0834V24.9518H75.8137V27.6278H75.0159V24.9518H73.7462V24.2471H73.7465Z" fill="white"/>
<path d="M79.41 24.2471H80.2123V27.6278H79.41V24.2471Z" fill="white"/>
<path d="M82.6193 25.9373C82.6193 24.8993 83.3933 24.1897 84.3987 24.1897C85.4041 24.1897 86.1733 24.8993 86.1733 25.9373C86.1733 26.9753 85.3993 27.685 84.3987 27.685C83.3982 27.685 82.6193 26.9707 82.6193 25.9373ZM85.3567 25.9373C85.3567 25.3706 84.9886 24.9135 84.3985 24.9135C83.8084 24.9135 83.4357 25.3659 83.4357 25.9373C83.4357 26.5087 83.8087 26.9612 84.3985 26.9612C84.9883 26.9612 85.3567 26.5087 85.3567 25.9373Z" fill="white"/>
<path d="M91.832 27.6373H91.1807L89.354 25.2993V27.6278H88.5706V24.2471H89.4816L91.0674 26.3185V24.2471H91.832V27.6373Z" fill="white"/>
<defs>
<filter id="filter0_dd_1894_485083" x="0" y="0.5" width="34" height="37" filterUnits="userSpaceOnUse" color-interpolation-filters="sRGB">
<feFlood flood-opacity="0" result="BackgroundImageFix"/>
<feColorMatrix in="SourceAlpha" type="matrix" values="0 0 0 0 0 0 0 0 0 0 0 0 0 0 0 0 0 0 127 0" result="hardAlpha"/>
<feOffset dy="1"/>
<feGaussianBlur stdDeviation="1"/>
<feColorMatrix type="matrix" values="0 0 0 0 0.0627451 0 0 0 0 0.0941176 0 0 0 0 0.156863 0 0 0 0.06 0"/>
<feBlend mode="normal" in2="BackgroundImageFix" result="effect1_dropShadow_1894_485083"/>
<feColorMatrix in="SourceAlpha" type="matrix" values="0 0 0 0 0 0 0 0 0 0 0 0 0 0 0 0 0 0 127 0" result="hardAlpha"/>
<feOffset dy="1"/>
<feGaussianBlur stdDeviation="1.5"/>
<feColorMatrix type="matrix" values="0 0 0 0 0.0627451 0 0 0 0 0.0941176 0 0 0 0 0.156863 0 0 0 0.1 0"/>
<feBlend mode="normal" in2="effect1_dropShadow_1894_485083" result="effect2_dropShadow_1894_485083"/>
<feBlend mode="normal" in="SourceGraphic" in2="effect2_dropShadow_1894_485083" result="shape"/>
</filter>
<clipPath id="clip0_1894_485083">
<rect width="28" height="31" fill="white" transform="translate(3 2.5)"/>
</clipPath>
</defs>
</svg>
