<svg width="34" height="37" viewBox="0 0 34 37" fill="none" xmlns="http://www.w3.org/2000/svg">
<g filter="url(#filter0_dd_1083_50505)">
<g clip-path="url(#clip0_1083_50505)">
<path d="M29.6431 23.6125L24.104 23.6217C24.1024 23.6234 24.1012 23.6251 24.0996 23.6268C24.0952 23.632 24.091 23.6372 24.0866 23.6423L24.0727 23.6399L24.0562 23.6369C23.8981 23.825 23.7322 24.0075 23.5588 24.184C22.7055 25.0522 21.7112 25.7344 20.603 26.2113C20.3541 26.3183 20.102 26.414 19.847 26.4981V24.5243C22.5643 23.3963 24.4792 20.6804 24.4792 17.5096C24.4792 15.0134 23.2923 12.7992 21.4613 11.4195C21.4598 11.4184 21.4584 11.4172 21.4568 11.4161C20.9499 11.0346 20.3937 10.7173 19.8 10.4755V6.98082C19.616 6.93017 19.4307 6.88483 19.2445 6.84465C18.9593 6.7831 18.6713 6.7336 18.3812 6.69629V10.0596C17.9454 9.97866 17.4963 9.93648 17.0375 9.93648C16.5357 9.93648 16.0456 9.98698 15.5717 10.0835V6.70734C14.6365 6.8359 13.7247 7.09001 12.8479 7.46752C12.2121 7.74101 11.5995 8.07949 11.0265 8.4735C10.4603 8.86263 9.92816 9.30959 9.44455 9.8016C9.39788 9.84909 9.35192 9.89687 9.30638 9.94508L6.84815 9.9491H6.82037C7.20613 9.4106 7.63419 8.90109 8.09693 8.43031C8.665 7.85221 9.29045 7.32705 9.95566 6.86962C10.6292 6.40659 11.3495 6.00885 12.0971 5.68716C12.2209 5.63393 12.3455 5.5827 12.471 5.53363V4.02689C12.4648 4.02904 12.4584 4.03148 12.4522 4.03363V4.01426C12.1467 4.12102 11.8448 4.23839 11.5479 4.36609C10.7167 4.72394 9.91547 5.16645 9.1668 5.68128C8.44293 6.17888 7.76151 6.74852 7.14099 7.37526C7.12111 7.39521 7.10137 7.4153 7.08164 7.43524C7.0681 7.44901 7.05471 7.46279 7.04145 7.47656C6.4332 8.10288 5.8798 8.78974 5.39563 9.51893C5.30116 9.66141 5.20881 9.80576 5.11942 9.95197C4.83842 10.4101 4.34776 11.3875 4.34776 11.3875L9.87712 11.3784L9.93408 11.3708C9.93564 11.369 9.94367 11.3633 9.94367 11.3633C10.1017 11.1752 10.2677 10.9927 10.4411 10.8162C11.2944 9.94795 12.2887 9.26583 13.3969 8.78888C13.6458 8.68184 13.8979 8.58614 14.1529 8.50205V10.4758C11.4355 11.6039 9.52069 14.3198 9.52069 17.4905C9.52069 19.9882 10.7087 22.203 12.5409 23.5825C13.043 23.9606 13.5934 24.2757 14.1811 24.5169C14.1873 24.5193 14.1937 24.5219 14.1999 24.5245V28.0192C14.3839 28.0699 14.5691 28.1152 14.7554 28.1554C15.0406 28.2169 15.3285 28.2664 15.6187 28.3037V24.9402C16.0545 25.0212 16.5036 25.0636 16.9624 25.0636C17.4575 25.0636 17.9413 25.0143 18.4094 24.9204C18.4156 24.9191 18.4219 24.9179 18.4281 24.9165V28.2927C18.9076 28.2268 19.3812 28.1278 19.847 27.9961C20.2892 27.871 20.7249 27.7165 21.152 27.5325C21.7877 27.259 22.4004 26.9205 22.9734 26.5265C23.5396 26.1374 24.0717 25.6904 24.5553 25.1984C24.5896 25.1636 24.6235 25.1284 24.657 25.0933C24.6692 25.0806 24.6814 25.0679 24.6935 25.0549H24.7492L27.1468 25.0509H27.1795C26.7937 25.5894 26.3657 26.0989 25.9029 26.5697C25.3349 27.1478 24.7094 27.673 24.0442 28.1304C23.3707 28.5934 22.6503 28.9912 21.9028 29.3129C21.779 29.3661 21.6544 29.4173 21.5289 29.4664V30.9731C21.5351 30.971 21.5414 30.9687 21.5476 30.9664V30.9858C21.8532 30.879 22.155 30.7616 22.452 30.6339C23.2831 30.2761 24.0844 29.8336 24.8331 29.3188C25.5569 28.8211 26.2383 28.2515 26.8589 27.6248C26.8724 27.6111 26.8859 27.5977 26.8995 27.5839C26.9192 27.5638 26.9389 27.5437 26.9584 27.5235C27.5667 26.8972 28.1201 26.2103 28.6042 25.4811C28.6987 25.3386 28.791 25.1943 28.8804 25.0481C29.1614 24.5899 29.4173 24.1144 29.6453 23.6268L29.6521 23.6125H29.6431ZM21.6417 13.57C22.51 14.6335 23.0323 15.9999 23.0323 17.4905C23.0323 18.9812 22.51 20.3476 21.6417 21.4111V13.57ZM12.3772 21.4338C11.4977 20.3673 10.9679 18.9921 10.9679 17.4907C10.9679 15.9893 11.4978 14.6141 12.3772 13.5476V21.434V21.4338ZM13.7866 12.2948C14.717 11.6978 15.8188 11.3518 17 11.3518C18.1812 11.3518 19.2979 11.7022 20.2321 12.3069V16.7734H13.7865V12.2948H13.7866ZM17 23.6294C15.8188 23.6294 14.717 23.2835 13.7866 22.6864V18.2078H20.2323V22.6744C19.2979 23.279 18.1893 23.6294 17.0001 23.6294H17ZM16.9812 29.2901C16.3129 29.2901 15.7288 29.6559 15.4116 30.2018C15.4111 30.2025 15.4109 30.2033 15.4103 30.2039C15.4045 30.2033 15.3986 30.2026 15.3928 30.2018C15.0766 30.161 14.762 30.1082 14.4508 30.0434C13.6394 29.8745 12.8412 29.6222 12.0785 29.2939C11.8482 29.1949 11.6209 29.0886 11.3965 28.9755C10.9053 28.7257 10.4293 28.4431 9.97469 28.1307C9.30948 27.6733 8.68403 27.1481 8.11597 26.57C8.11272 26.5667 8.10976 26.5637 8.10652 26.5604C8.10328 26.5571 8.10032 26.5541 8.09707 26.5508C7.53648 25.978 7.02693 25.3481 6.58223 24.6783C6.12725 23.9929 5.73641 23.2598 5.4203 22.499C5.09771 21.7228 4.84984 20.9107 4.68389 20.0848C4.51413 19.2408 4.42813 18.3746 4.42813 17.5095C4.42813 16.6444 4.51413 15.7782 4.68389 14.9342C4.69785 14.8651 4.71223 14.7959 4.72746 14.7269H6.61734C6.38625 15.6239 6.26965 16.5486 6.26965 17.4903C6.26965 18.9597 6.55347 20.3878 7.11336 21.7348C7.37378 22.3617 7.69425 22.9668 8.06606 23.5343C8.0779 23.5525 8.0896 23.5704 8.10159 23.5884C8.48424 24.1646 8.9233 24.7061 9.40691 25.1983L9.42566 25.2174C9.90391 25.7018 10.4297 26.1421 10.9887 26.5264C11.3783 26.7941 12.3205 27.3062 12.3205 27.3062V25.6814C11.6372 25.2746 11.0079 24.7799 10.441 24.2031L10.4315 24.1935C10.4283 24.1902 10.4253 24.1871 10.4221 24.1838C9.56891 23.3155 8.89863 22.3036 8.42996 21.1758C7.94395 20.0066 7.69764 18.7666 7.69764 17.4901C7.69764 16.2137 7.94395 14.9735 8.42996 13.8044C8.503 13.6285 8.58111 13.4555 8.66387 13.2854H3.62221C3.48826 13.7272 3.37504 14.1756 3.28438 14.6276C3.09559 15.566 3 16.5291 3 17.4904C3 18.4518 3.09559 19.4148 3.28438 20.3531C3.46909 21.2717 3.74459 22.1752 4.10356 23.0387C4.21889 23.3162 4.34311 23.5903 4.47607 23.8603C4.48241 23.8733 4.4889 23.8863 4.49524 23.8993C4.76271 24.4388 5.06387 24.9618 5.39591 25.4619C5.89559 26.2146 6.46916 26.9221 7.10067 27.5648C7.73204 28.2076 8.42742 28.7912 9.16708 29.2997C9.91576 29.8145 10.717 30.257 11.5482 30.6149C12.3967 30.9802 13.2845 31.2605 14.1872 31.4485C14.522 31.5182 14.8601 31.5755 15.2001 31.6201C15.2033 31.6206 15.2064 31.6208 15.2097 31.6213C15.2129 31.6217 15.2163 31.622 15.2194 31.6224C15.2212 31.6293 15.2229 31.6358 15.2249 31.6425C15.4385 32.4256 16.1442 33.0002 16.9814 33.0002C17.8186 33.0002 18.5315 32.4196 18.7411 31.6303C18.7823 31.4758 18.8043 31.3131 18.8043 31.1452C18.8043 30.8027 18.7129 30.4816 18.5538 30.2062C18.2371 29.6581 17.6514 29.2902 16.9814 29.2902L16.9812 29.2901ZM30.9999 17.4197C30.9953 16.4818 30.8998 15.543 30.7158 14.628C30.5311 13.7094 30.2556 12.8059 29.8966 11.9424C29.5449 11.0966 29.1101 10.2811 28.6042 9.51922C28.1045 8.7665 27.531 8.05897 26.8995 7.4163C26.2681 6.77349 25.5727 6.18993 24.8331 5.68142C24.0844 5.16659 23.2831 4.72409 22.452 4.36623C21.6035 4.00092 20.7156 3.72055 19.813 3.53258C19.4701 3.46127 19.1237 3.40287 18.7753 3.35782C18.5616 2.57482 17.8561 2.00016 17.0188 2.00016C16.1814 2.00016 15.4687 2.5807 15.259 3.37001C15.2178 3.52455 15.1958 3.68726 15.1958 3.85514C15.1958 4.19764 15.2872 4.51876 15.4464 4.79411C15.7631 5.34222 16.3487 5.71012 17.0188 5.71012C17.6888 5.71012 18.2712 5.34423 18.5883 4.79841C18.5887 4.79769 18.5893 4.79712 18.5896 4.79626C18.5953 4.79683 18.6013 4.79755 18.607 4.79841C18.9233 4.83916 19.2379 4.89196 19.5493 4.95682C20.3607 5.1257 21.1589 5.37795 21.9215 5.70624C22.1552 5.80682 22.3861 5.91473 22.6138 6.0298C22.6258 6.03597 22.6379 6.04185 22.6499 6.04802C23.1248 6.29209 23.585 6.56687 24.0253 6.86962C24.6905 7.32705 25.316 7.85221 25.884 8.43031L25.9028 8.44939C26.4634 9.02219 26.9729 9.65209 27.4176 10.3219C27.8726 11.0073 28.2634 11.7404 28.5796 12.5011C28.9021 13.2774 29.15 14.0895 29.316 14.9153C29.4857 15.7593 29.5717 16.6255 29.5717 17.4905C29.5717 18.3556 29.4857 19.2218 29.316 20.0658C29.302 20.135 29.2876 20.2041 29.2724 20.2732H27.3825C27.6136 19.3761 27.7302 18.4515 27.7302 17.5098C27.7302 16.0403 27.4464 14.6122 26.8865 13.2652C26.6261 12.6383 26.3056 12.0332 25.9338 11.4657C25.9221 11.4475 25.9101 11.4296 25.8983 11.4116C25.5156 10.8354 25.0766 10.2939 24.5929 9.80174C24.5897 9.79844 24.5867 9.79543 24.5835 9.79213C24.5803 9.78883 24.5773 9.78582 24.5741 9.78252C24.0958 9.29811 23.57 8.85761 23.011 8.4735C22.643 8.22053 22.2585 7.99081 21.8622 7.78635C21.8565 7.78348 21.7803 7.74617 21.6792 7.69739V9.31834C22.3626 9.72512 22.9918 10.2199 23.5588 10.7967L23.5775 10.8158C24.4307 11.6841 25.101 12.696 25.5696 13.8238C26.0556 14.993 26.3019 16.233 26.3019 17.5095C26.3019 18.7859 26.0556 20.0261 25.5696 21.1952C25.4966 21.3711 25.4185 21.5441 25.3357 21.7142H30.3778C30.5117 21.2724 30.625 20.824 30.7156 20.372C30.8996 19.4569 30.9952 18.5182 30.9997 17.5804C30.9999 17.5568 30.9999 17.5332 30.9999 17.5095V17.4881C30.9999 17.4651 30.9999 17.4423 30.9997 17.4195L30.9999 17.4197Z" fill="#020202"/>
<path d="M15.6094 28.3146H15.5943C15.5994 28.3153 15.6043 28.3159 15.6094 28.3168V28.3146Z" fill="#020202"/>
</g>
</g>
<defs>
<filter id="filter0_dd_1083_50505" x="0" y="0" width="34" height="37" filterUnits="userSpaceOnUse" color-interpolation-filters="sRGB">
<feFlood flood-opacity="0" result="BackgroundImageFix"/>
<feColorMatrix in="SourceAlpha" type="matrix" values="0 0 0 0 0 0 0 0 0 0 0 0 0 0 0 0 0 0 127 0" result="hardAlpha"/>
<feOffset dy="1"/>
<feGaussianBlur stdDeviation="1"/>
<feColorMatrix type="matrix" values="0 0 0 0 0.0627451 0 0 0 0 0.0941176 0 0 0 0 0.156863 0 0 0 0.06 0"/>
<feBlend mode="normal" in2="BackgroundImageFix" result="effect1_dropShadow_1083_50505"/>
<feColorMatrix in="SourceAlpha" type="matrix" values="0 0 0 0 0 0 0 0 0 0 0 0 0 0 0 0 0 0 127 0" result="hardAlpha"/>
<feOffset dy="1"/>
<feGaussianBlur stdDeviation="1.5"/>
<feColorMatrix type="matrix" values="0 0 0 0 0.0627451 0 0 0 0 0.0941176 0 0 0 0 0.156863 0 0 0 0.1 0"/>
<feBlend mode="normal" in2="effect1_dropShadow_1083_50505" result="effect2_dropShadow_1083_50505"/>
<feBlend mode="normal" in="SourceGraphic" in2="effect2_dropShadow_1083_50505" result="shape"/>
</filter>
<clipPath id="clip0_1083_50505">
<rect width="28" height="31" fill="white" transform="translate(3 2)"/>
</clipPath>
</defs>
</svg>
